<mxfile host="Electron" agent="Mozilla/5.0 (Windows NT 10.0; Win64; x64) AppleWebKit/537.36 (KHTML, like Gecko) draw.io/25.0.2 Chrome/128.0.6613.186 Electron/32.2.5 Safari/537.36" version="25.0.2" pages="4">
  <diagram name="Диограмма контекста" id="0t5y7B54IwslwVeWMhBL">
    <mxGraphModel dx="4643" dy="2900" grid="1" gridSize="10" guides="1" tooltips="1" connect="1" arrows="1" fold="1" page="1" pageScale="1" pageWidth="827" pageHeight="1169" math="0" shadow="0">
      <root>
        <mxCell id="0" />
        <mxCell id="1" parent="0" />
        <mxCell id="h-WwFwcyXTEHFX-nZQpB-1" value="&lt;font style=&quot;font-size: 15px;&quot; face=&quot;Times New Roman&quot;&gt;Начало&lt;/font&gt;" style="ellipse;whiteSpace=wrap;html=1;" parent="1" vertex="1">
          <mxGeometry x="320" y="110" width="110" height="40" as="geometry" />
        </mxCell>
        <mxCell id="h-WwFwcyXTEHFX-nZQpB-2" value="&lt;font style=&quot;font-size: 15px;&quot; face=&quot;Times New Roman&quot;&gt;Конец&lt;/font&gt;" style="ellipse;whiteSpace=wrap;html=1;" parent="1" vertex="1">
          <mxGeometry x="320" y="770" width="110" height="40" as="geometry" />
        </mxCell>
        <mxCell id="h-WwFwcyXTEHFX-nZQpB-29" style="edgeStyle=orthogonalEdgeStyle;rounded=0;orthogonalLoop=1;jettySize=auto;html=1;exitX=0.5;exitY=1;exitDx=0;exitDy=0;entryX=0.5;entryY=0;entryDx=0;entryDy=0;" parent="1" source="h-WwFwcyXTEHFX-nZQpB-3" target="h-WwFwcyXTEHFX-nZQpB-7" edge="1">
          <mxGeometry relative="1" as="geometry" />
        </mxCell>
        <mxCell id="h-WwFwcyXTEHFX-nZQpB-3" value="&lt;font style=&quot;font-size: 15px;&quot;&gt;Ввод количества посещений за каждый (конкретный) день&lt;/font&gt;" style="shape=parallelogram;perimeter=parallelogramPerimeter;whiteSpace=wrap;html=1;fixedSize=1;fontFamily=Times New Roman;" parent="1" vertex="1">
          <mxGeometry x="250" y="250" width="250" height="60" as="geometry" />
        </mxCell>
        <mxCell id="h-WwFwcyXTEHFX-nZQpB-33" style="edgeStyle=orthogonalEdgeStyle;rounded=0;orthogonalLoop=1;jettySize=auto;html=1;exitX=0.5;exitY=1;exitDx=0;exitDy=0;entryX=0.5;entryY=0;entryDx=0;entryDy=0;" parent="1" source="h-WwFwcyXTEHFX-nZQpB-4" target="h-WwFwcyXTEHFX-nZQpB-13" edge="1">
          <mxGeometry relative="1" as="geometry" />
        </mxCell>
        <mxCell id="h-WwFwcyXTEHFX-nZQpB-4" value="&lt;font style=&quot;font-size: 15px;&quot; face=&quot;Times New Roman&quot;&gt;Сохранение данных о посещаемости за каждый (конкретный) день&lt;/font&gt;" style="rounded=0;whiteSpace=wrap;html=1;" parent="1" vertex="1">
          <mxGeometry x="135" y="440" width="180" height="60" as="geometry" />
        </mxCell>
        <mxCell id="h-WwFwcyXTEHFX-nZQpB-28" style="edgeStyle=orthogonalEdgeStyle;rounded=0;orthogonalLoop=1;jettySize=auto;html=1;exitX=0.5;exitY=1;exitDx=0;exitDy=0;entryX=0.5;entryY=0;entryDx=0;entryDy=0;" parent="1" source="h-WwFwcyXTEHFX-nZQpB-5" target="h-WwFwcyXTEHFX-nZQpB-3" edge="1">
          <mxGeometry relative="1" as="geometry" />
        </mxCell>
        <mxCell id="h-WwFwcyXTEHFX-nZQpB-5" value="&lt;font style=&quot;font-size: 15px;&quot; face=&quot;Times New Roman&quot;&gt;Создание списка на 31 день месяца&lt;/font&gt;" style="rounded=0;whiteSpace=wrap;html=1;" parent="1" vertex="1">
          <mxGeometry x="285" y="170" width="180" height="60" as="geometry" />
        </mxCell>
        <mxCell id="h-WwFwcyXTEHFX-nZQpB-36" style="edgeStyle=orthogonalEdgeStyle;rounded=0;orthogonalLoop=1;jettySize=auto;html=1;exitX=0.5;exitY=1;exitDx=0;exitDy=0;" parent="1" source="h-WwFwcyXTEHFX-nZQpB-6" target="h-WwFwcyXTEHFX-nZQpB-2" edge="1">
          <mxGeometry relative="1" as="geometry">
            <Array as="points">
              <mxPoint x="225" y="750" />
              <mxPoint x="370" y="750" />
            </Array>
          </mxGeometry>
        </mxCell>
        <mxCell id="h-WwFwcyXTEHFX-nZQpB-6" value="&lt;font style=&quot;font-size: 15px;&quot;&gt;Вывод сообщения о&amp;nbsp;&lt;/font&gt;&lt;div&gt;&lt;font style=&quot;font-size: 15px;&quot;&gt;заполнении всего списка&lt;/font&gt;&lt;/div&gt;" style="shape=parallelogram;perimeter=parallelogramPerimeter;whiteSpace=wrap;html=1;fixedSize=1;fontFamily=Times New Roman;" parent="1" vertex="1">
          <mxGeometry x="100" y="680" width="250" height="60" as="geometry" />
        </mxCell>
        <mxCell id="h-WwFwcyXTEHFX-nZQpB-30" style="edgeStyle=orthogonalEdgeStyle;rounded=0;orthogonalLoop=1;jettySize=auto;html=1;exitX=1;exitY=0.5;exitDx=0;exitDy=0;entryX=0.5;entryY=0;entryDx=0;entryDy=0;" parent="1" source="h-WwFwcyXTEHFX-nZQpB-7" target="h-WwFwcyXTEHFX-nZQpB-10" edge="1">
          <mxGeometry relative="1" as="geometry" />
        </mxCell>
        <mxCell id="h-WwFwcyXTEHFX-nZQpB-31" style="edgeStyle=orthogonalEdgeStyle;rounded=0;orthogonalLoop=1;jettySize=auto;html=1;exitX=0;exitY=0.5;exitDx=0;exitDy=0;entryX=0.5;entryY=0;entryDx=0;entryDy=0;" parent="1" source="h-WwFwcyXTEHFX-nZQpB-7" target="h-WwFwcyXTEHFX-nZQpB-4" edge="1">
          <mxGeometry relative="1" as="geometry" />
        </mxCell>
        <mxCell id="h-WwFwcyXTEHFX-nZQpB-7" value="&lt;font face=&quot;Times New Roman&quot; style=&quot;font-size: 15px;&quot;&gt;Проверка на корректность ввода даных&lt;/font&gt;" style="rhombus;whiteSpace=wrap;html=1;" parent="1" vertex="1">
          <mxGeometry x="290" y="330" width="170" height="110" as="geometry" />
        </mxCell>
        <mxCell id="h-WwFwcyXTEHFX-nZQpB-8" value="&lt;font face=&quot;Times New Roman&quot; style=&quot;font-size: 15px;&quot;&gt;Да&lt;/font&gt;" style="text;html=1;align=center;verticalAlign=middle;resizable=0;points=[];autosize=1;strokeColor=none;fillColor=none;" parent="1" vertex="1">
          <mxGeometry x="240" y="350" width="40" height="30" as="geometry" />
        </mxCell>
        <mxCell id="h-WwFwcyXTEHFX-nZQpB-9" value="&lt;font style=&quot;font-size: 15px;&quot; face=&quot;Times New Roman&quot;&gt;Нет&lt;/font&gt;" style="text;html=1;align=center;verticalAlign=middle;resizable=0;points=[];autosize=1;strokeColor=none;fillColor=none;" parent="1" vertex="1">
          <mxGeometry x="460" y="350" width="50" height="30" as="geometry" />
        </mxCell>
        <mxCell id="h-WwFwcyXTEHFX-nZQpB-32" style="edgeStyle=orthogonalEdgeStyle;rounded=0;orthogonalLoop=1;jettySize=auto;html=1;exitX=1;exitY=0.5;exitDx=0;exitDy=0;entryX=1;entryY=0.5;entryDx=0;entryDy=0;" parent="1" source="h-WwFwcyXTEHFX-nZQpB-10" target="h-WwFwcyXTEHFX-nZQpB-3" edge="1">
          <mxGeometry relative="1" as="geometry">
            <mxPoint x="730" y="350" as="targetPoint" />
            <Array as="points">
              <mxPoint x="710" y="470" />
              <mxPoint x="710" y="280" />
            </Array>
          </mxGeometry>
        </mxCell>
        <mxCell id="h-WwFwcyXTEHFX-nZQpB-10" value="&lt;font style=&quot;font-size: 15px;&quot;&gt;Вывод сообщения о&amp;nbsp;&lt;/font&gt;&lt;span style=&quot;font-size: 15px; background-color: initial;&quot;&gt;не&amp;nbsp;&lt;/span&gt;&lt;div&gt;&lt;span style=&quot;font-size: 15px; background-color: initial;&quot;&gt;корректном вводе&lt;/span&gt;&lt;/div&gt;" style="shape=parallelogram;perimeter=parallelogramPerimeter;whiteSpace=wrap;html=1;fixedSize=1;fontFamily=Times New Roman;" parent="1" vertex="1">
          <mxGeometry x="430" y="440" width="250" height="60" as="geometry" />
        </mxCell>
        <mxCell id="h-WwFwcyXTEHFX-nZQpB-34" style="edgeStyle=orthogonalEdgeStyle;rounded=0;orthogonalLoop=1;jettySize=auto;html=1;exitX=0.5;exitY=1;exitDx=0;exitDy=0;entryX=0.5;entryY=0;entryDx=0;entryDy=0;" parent="1" source="h-WwFwcyXTEHFX-nZQpB-13" target="h-WwFwcyXTEHFX-nZQpB-15" edge="1">
          <mxGeometry relative="1" as="geometry" />
        </mxCell>
        <mxCell id="h-WwFwcyXTEHFX-nZQpB-13" value="&lt;font style=&quot;font-size: 15px;&quot; face=&quot;Times New Roman&quot;&gt;Отрисовка графика поочередно, зависимо от новых данных списка&lt;/font&gt;" style="rounded=0;whiteSpace=wrap;html=1;" parent="1" vertex="1">
          <mxGeometry x="135" y="520" width="180" height="60" as="geometry" />
        </mxCell>
        <mxCell id="h-WwFwcyXTEHFX-nZQpB-35" style="edgeStyle=orthogonalEdgeStyle;rounded=0;orthogonalLoop=1;jettySize=auto;html=1;exitX=0.5;exitY=1;exitDx=0;exitDy=0;entryX=0.5;entryY=0;entryDx=0;entryDy=0;" parent="1" source="h-WwFwcyXTEHFX-nZQpB-15" target="h-WwFwcyXTEHFX-nZQpB-6" edge="1">
          <mxGeometry relative="1" as="geometry" />
        </mxCell>
        <mxCell id="h-WwFwcyXTEHFX-nZQpB-15" value="&lt;font style=&quot;font-size: 15px;&quot;&gt;Обновляемый вывод&amp;nbsp;&lt;/font&gt;&lt;span style=&quot;font-size: 15px; background-color: initial;&quot;&gt;о&amp;nbsp;&lt;/span&gt;&lt;div&gt;&lt;span style=&quot;font-size: 15px; background-color: initial;&quot;&gt;макс. и мин. дне&lt;/span&gt;&lt;/div&gt;" style="shape=parallelogram;perimeter=parallelogramPerimeter;whiteSpace=wrap;html=1;fixedSize=1;fontFamily=Times New Roman;" parent="1" vertex="1">
          <mxGeometry x="100" y="600" width="250" height="60" as="geometry" />
        </mxCell>
        <mxCell id="h-WwFwcyXTEHFX-nZQpB-39" style="edgeStyle=orthogonalEdgeStyle;rounded=0;orthogonalLoop=1;jettySize=auto;html=1;exitX=0.5;exitY=1;exitDx=0;exitDy=0;entryX=0.5;entryY=0;entryDx=0;entryDy=0;" parent="1" source="h-WwFwcyXTEHFX-nZQpB-17" target="h-WwFwcyXTEHFX-nZQpB-18" edge="1">
          <mxGeometry relative="1" as="geometry" />
        </mxCell>
        <mxCell id="h-WwFwcyXTEHFX-nZQpB-17" value="&lt;font style=&quot;font-size: 15px;&quot; face=&quot;Times New Roman&quot;&gt;Начало&lt;/font&gt;" style="ellipse;whiteSpace=wrap;html=1;" parent="1" vertex="1">
          <mxGeometry x="785" y="100" width="110" height="40" as="geometry" />
        </mxCell>
        <mxCell id="h-WwFwcyXTEHFX-nZQpB-40" style="edgeStyle=orthogonalEdgeStyle;rounded=0;orthogonalLoop=1;jettySize=auto;html=1;exitX=0.5;exitY=1;exitDx=0;exitDy=0;entryX=0.5;entryY=0;entryDx=0;entryDy=0;" parent="1" source="h-WwFwcyXTEHFX-nZQpB-18" target="h-WwFwcyXTEHFX-nZQpB-19" edge="1">
          <mxGeometry relative="1" as="geometry" />
        </mxCell>
        <mxCell id="h-WwFwcyXTEHFX-nZQpB-18" value="&lt;font style=&quot;font-size: 15px;&quot; face=&quot;Times New Roman&quot;&gt;Полное создание графика и получение окончательного ответа&lt;/font&gt;" style="rounded=0;whiteSpace=wrap;html=1;" parent="1" vertex="1">
          <mxGeometry x="750" y="160" width="180" height="60" as="geometry" />
        </mxCell>
        <mxCell id="h-WwFwcyXTEHFX-nZQpB-41" style="edgeStyle=orthogonalEdgeStyle;rounded=0;orthogonalLoop=1;jettySize=auto;html=1;exitX=0.5;exitY=1;exitDx=0;exitDy=0;entryX=0.5;entryY=0;entryDx=0;entryDy=0;" parent="1" source="h-WwFwcyXTEHFX-nZQpB-19" target="h-WwFwcyXTEHFX-nZQpB-20" edge="1">
          <mxGeometry relative="1" as="geometry" />
        </mxCell>
        <mxCell id="h-WwFwcyXTEHFX-nZQpB-19" value="&lt;font style=&quot;font-size: 15px;&quot; face=&quot;Times New Roman&quot;&gt;Создане нового экземпляра класса для заполнения&lt;/font&gt;" style="rounded=0;whiteSpace=wrap;html=1;" parent="1" vertex="1">
          <mxGeometry x="750" y="240" width="180" height="60" as="geometry" />
        </mxCell>
        <mxCell id="h-WwFwcyXTEHFX-nZQpB-42" style="edgeStyle=orthogonalEdgeStyle;rounded=0;orthogonalLoop=1;jettySize=auto;html=1;exitX=0.5;exitY=1;exitDx=0;exitDy=0;entryX=0.5;entryY=0;entryDx=0;entryDy=0;" parent="1" source="h-WwFwcyXTEHFX-nZQpB-20" target="h-WwFwcyXTEHFX-nZQpB-21" edge="1">
          <mxGeometry relative="1" as="geometry" />
        </mxCell>
        <mxCell id="h-WwFwcyXTEHFX-nZQpB-20" value="&lt;font style=&quot;font-size: 15px;&quot; face=&quot;Times New Roman&quot;&gt;Сброс всех имеющихся данных о днях и графике&lt;/font&gt;" style="rounded=0;whiteSpace=wrap;html=1;" parent="1" vertex="1">
          <mxGeometry x="750" y="320" width="180" height="60" as="geometry" />
        </mxCell>
        <mxCell id="h-WwFwcyXTEHFX-nZQpB-43" style="edgeStyle=orthogonalEdgeStyle;rounded=0;orthogonalLoop=1;jettySize=auto;html=1;exitX=0.5;exitY=1;exitDx=0;exitDy=0;" parent="1" source="h-WwFwcyXTEHFX-nZQpB-21" target="h-WwFwcyXTEHFX-nZQpB-22" edge="1">
          <mxGeometry relative="1" as="geometry" />
        </mxCell>
        <mxCell id="h-WwFwcyXTEHFX-nZQpB-21" value="&lt;font style=&quot;font-size: 15px;&quot; face=&quot;Times New Roman&quot;&gt;Обнвление информации&lt;/font&gt;" style="rounded=0;whiteSpace=wrap;html=1;" parent="1" vertex="1">
          <mxGeometry x="750" y="400" width="180" height="60" as="geometry" />
        </mxCell>
        <mxCell id="h-WwFwcyXTEHFX-nZQpB-22" value="&lt;font style=&quot;font-size: 15px;&quot; face=&quot;Times New Roman&quot;&gt;Конец&lt;/font&gt;" style="ellipse;whiteSpace=wrap;html=1;" parent="1" vertex="1">
          <mxGeometry x="785" y="480" width="110" height="40" as="geometry" />
        </mxCell>
        <mxCell id="h-WwFwcyXTEHFX-nZQpB-37" style="edgeStyle=orthogonalEdgeStyle;rounded=0;orthogonalLoop=1;jettySize=auto;html=1;exitX=0.5;exitY=1;exitDx=0;exitDy=0;" parent="1" source="h-WwFwcyXTEHFX-nZQpB-23" target="h-WwFwcyXTEHFX-nZQpB-25" edge="1">
          <mxGeometry relative="1" as="geometry" />
        </mxCell>
        <mxCell id="h-WwFwcyXTEHFX-nZQpB-23" value="&lt;font style=&quot;font-size: 15px;&quot; face=&quot;Times New Roman&quot;&gt;Начало&lt;/font&gt;" style="ellipse;whiteSpace=wrap;html=1;" parent="1" vertex="1">
          <mxGeometry x="1035" y="100" width="110" height="40" as="geometry" />
        </mxCell>
        <mxCell id="h-WwFwcyXTEHFX-nZQpB-38" style="edgeStyle=orthogonalEdgeStyle;rounded=0;orthogonalLoop=1;jettySize=auto;html=1;exitX=0.5;exitY=1;exitDx=0;exitDy=0;entryX=0.5;entryY=0;entryDx=0;entryDy=0;" parent="1" source="h-WwFwcyXTEHFX-nZQpB-25" target="h-WwFwcyXTEHFX-nZQpB-26" edge="1">
          <mxGeometry relative="1" as="geometry" />
        </mxCell>
        <mxCell id="h-WwFwcyXTEHFX-nZQpB-25" value="&lt;span style=&quot;font-size: 15px;&quot;&gt;Вывод сообщения информации&amp;nbsp;&lt;/span&gt;&lt;div&gt;&lt;span style=&quot;font-size: 15px;&quot;&gt;о программе&lt;/span&gt;&lt;/div&gt;" style="shape=parallelogram;perimeter=parallelogramPerimeter;whiteSpace=wrap;html=1;fixedSize=1;fontFamily=Times New Roman;" parent="1" vertex="1">
          <mxGeometry x="965" y="160" width="250" height="60" as="geometry" />
        </mxCell>
        <mxCell id="h-WwFwcyXTEHFX-nZQpB-26" value="&lt;font style=&quot;font-size: 15px;&quot; face=&quot;Times New Roman&quot;&gt;Конец&lt;/font&gt;" style="ellipse;whiteSpace=wrap;html=1;" parent="1" vertex="1">
          <mxGeometry x="1035" y="240" width="110" height="40" as="geometry" />
        </mxCell>
        <mxCell id="h-WwFwcyXTEHFX-nZQpB-27" value="" style="endArrow=classic;html=1;rounded=0;exitX=0.5;exitY=1;exitDx=0;exitDy=0;entryX=0.5;entryY=0;entryDx=0;entryDy=0;" parent="1" source="h-WwFwcyXTEHFX-nZQpB-1" target="h-WwFwcyXTEHFX-nZQpB-5" edge="1">
          <mxGeometry width="50" height="50" relative="1" as="geometry">
            <mxPoint x="490" y="360" as="sourcePoint" />
            <mxPoint x="540" y="310" as="targetPoint" />
          </mxGeometry>
        </mxCell>
        <mxCell id="75QqTKFgofHjlk_VrofV-1" value="&lt;font style=&quot;font-size: 15px;&quot; face=&quot;Times New Roman&quot;&gt;Пользователь&lt;/font&gt;" style="shape=umlActor;verticalLabelPosition=bottom;verticalAlign=top;html=1;outlineConnect=0;" vertex="1" parent="1">
          <mxGeometry x="971" y="487" width="70" height="100" as="geometry" />
        </mxCell>
        <mxCell id="75QqTKFgofHjlk_VrofV-2" value="&lt;font style=&quot;font-size: 15px;&quot; face=&quot;Times New Roman&quot;&gt;Программа&lt;/font&gt;" style="swimlane;whiteSpace=wrap;html=1;" vertex="1" parent="1">
          <mxGeometry x="1151" y="312" width="360" height="480" as="geometry" />
        </mxCell>
        <mxCell id="75QqTKFgofHjlk_VrofV-3" value="Ввод количества псещений&amp;nbsp;" style="ellipse;whiteSpace=wrap;html=1;fontSize=15;fontFamily=Times New Roman;" vertex="1" parent="75QqTKFgofHjlk_VrofV-2">
          <mxGeometry x="20" y="50" width="135" height="70" as="geometry" />
        </mxCell>
        <mxCell id="75QqTKFgofHjlk_VrofV-4" value="Просмотр графика" style="ellipse;whiteSpace=wrap;html=1;fontSize=15;fontFamily=Times New Roman;" vertex="1" parent="75QqTKFgofHjlk_VrofV-2">
          <mxGeometry x="20" y="275" width="135" height="70" as="geometry" />
        </mxCell>
        <mxCell id="75QqTKFgofHjlk_VrofV-5" value="Просмотр макс. и мин. днях" style="ellipse;whiteSpace=wrap;html=1;fontSize=15;fontFamily=Times New Roman;" vertex="1" parent="75QqTKFgofHjlk_VrofV-2">
          <mxGeometry x="20" y="360" width="135" height="70" as="geometry" />
        </mxCell>
        <mxCell id="75QqTKFgofHjlk_VrofV-7" value="Регистрация значений в список" style="ellipse;whiteSpace=wrap;html=1;fontSize=15;fontFamily=Times New Roman;" vertex="1" parent="75QqTKFgofHjlk_VrofV-2">
          <mxGeometry x="170" y="100" width="135" height="70" as="geometry" />
        </mxCell>
        <mxCell id="75QqTKFgofHjlk_VrofV-6" value="Построение&amp;nbsp;&lt;div&gt;графика&lt;/div&gt;" style="ellipse;whiteSpace=wrap;html=1;fontSize=15;fontFamily=Times New Roman;" vertex="1" parent="75QqTKFgofHjlk_VrofV-2">
          <mxGeometry x="170" y="190" width="135" height="70" as="geometry" />
        </mxCell>
        <mxCell id="75QqTKFgofHjlk_VrofV-13" value="" style="endArrow=open;html=1;rounded=0;fontFamily=Times New Roman;fontSize=15;dashed=1;endFill=0;exitX=0.5;exitY=0;exitDx=0;exitDy=0;entryX=1;entryY=0.5;entryDx=0;entryDy=0;" edge="1" parent="75QqTKFgofHjlk_VrofV-2" source="75QqTKFgofHjlk_VrofV-7" target="75QqTKFgofHjlk_VrofV-3">
          <mxGeometry width="50" height="50" relative="1" as="geometry">
            <mxPoint x="80" y="270" as="sourcePoint" />
            <mxPoint x="130" y="220" as="targetPoint" />
          </mxGeometry>
        </mxCell>
        <mxCell id="75QqTKFgofHjlk_VrofV-16" value="&lt;font face=&quot;Times New Roman&quot;&gt;ВКЛ.&lt;/font&gt;" style="text;html=1;align=center;verticalAlign=middle;resizable=0;points=[];autosize=1;strokeColor=none;fillColor=none;" vertex="1" parent="75QqTKFgofHjlk_VrofV-2">
          <mxGeometry x="170" y="60" width="50" height="30" as="geometry" />
        </mxCell>
        <mxCell id="75QqTKFgofHjlk_VrofV-17" value="" style="endArrow=open;html=1;rounded=0;fontFamily=Times New Roman;fontSize=15;dashed=1;endFill=0;exitX=1;exitY=0;exitDx=0;exitDy=0;entryX=0;entryY=1;entryDx=0;entryDy=0;" edge="1" parent="75QqTKFgofHjlk_VrofV-2" source="75QqTKFgofHjlk_VrofV-4" target="75QqTKFgofHjlk_VrofV-6">
          <mxGeometry width="50" height="50" relative="1" as="geometry">
            <mxPoint x="410" y="110" as="sourcePoint" />
            <mxPoint x="327" y="95" as="targetPoint" />
          </mxGeometry>
        </mxCell>
        <mxCell id="75QqTKFgofHjlk_VrofV-18" value="" style="endArrow=open;html=1;rounded=0;fontFamily=Times New Roman;fontSize=15;dashed=1;endFill=0;exitX=1;exitY=0.5;exitDx=0;exitDy=0;entryX=0.5;entryY=1;entryDx=0;entryDy=0;" edge="1" parent="75QqTKFgofHjlk_VrofV-2" source="75QqTKFgofHjlk_VrofV-5" target="75QqTKFgofHjlk_VrofV-6">
          <mxGeometry width="50" height="50" relative="1" as="geometry">
            <mxPoint x="240" y="300" as="sourcePoint" />
            <mxPoint x="157" y="285" as="targetPoint" />
          </mxGeometry>
        </mxCell>
        <mxCell id="75QqTKFgofHjlk_VrofV-19" value="&lt;font face=&quot;Times New Roman&quot;&gt;ВКЛ.&lt;/font&gt;" style="text;html=1;align=center;verticalAlign=middle;resizable=0;points=[];autosize=1;strokeColor=none;fillColor=none;" vertex="1" parent="75QqTKFgofHjlk_VrofV-2">
          <mxGeometry x="180" y="345" width="50" height="30" as="geometry" />
        </mxCell>
        <mxCell id="75QqTKFgofHjlk_VrofV-20" value="&lt;font face=&quot;Times New Roman&quot;&gt;ВКЛ.&lt;/font&gt;" style="text;html=1;align=center;verticalAlign=middle;resizable=0;points=[];autosize=1;strokeColor=none;fillColor=none;" vertex="1" parent="75QqTKFgofHjlk_VrofV-2">
          <mxGeometry x="155" y="270" width="50" height="30" as="geometry" />
        </mxCell>
        <mxCell id="75QqTKFgofHjlk_VrofV-8" value="" style="endArrow=none;html=1;rounded=0;exitX=0;exitY=0.5;exitDx=0;exitDy=0;" edge="1" parent="1" source="75QqTKFgofHjlk_VrofV-6" target="75QqTKFgofHjlk_VrofV-1">
          <mxGeometry width="50" height="50" relative="1" as="geometry">
            <mxPoint x="1231" y="582" as="sourcePoint" />
            <mxPoint x="1281" y="532" as="targetPoint" />
          </mxGeometry>
        </mxCell>
        <mxCell id="75QqTKFgofHjlk_VrofV-9" value="" style="endArrow=none;html=1;rounded=0;exitX=0;exitY=0.5;exitDx=0;exitDy=0;" edge="1" parent="1" source="75QqTKFgofHjlk_VrofV-4" target="75QqTKFgofHjlk_VrofV-1">
          <mxGeometry width="50" height="50" relative="1" as="geometry">
            <mxPoint x="1231" y="582" as="sourcePoint" />
            <mxPoint x="1281" y="532" as="targetPoint" />
          </mxGeometry>
        </mxCell>
        <mxCell id="75QqTKFgofHjlk_VrofV-10" value="" style="endArrow=none;html=1;rounded=0;exitX=0;exitY=0.5;exitDx=0;exitDy=0;" edge="1" parent="1" source="75QqTKFgofHjlk_VrofV-5" target="75QqTKFgofHjlk_VrofV-1">
          <mxGeometry width="50" height="50" relative="1" as="geometry">
            <mxPoint x="1231" y="582" as="sourcePoint" />
            <mxPoint x="1281" y="532" as="targetPoint" />
          </mxGeometry>
        </mxCell>
        <mxCell id="75QqTKFgofHjlk_VrofV-11" value="" style="endArrow=none;html=1;rounded=0;exitX=0;exitY=0.5;exitDx=0;exitDy=0;" edge="1" parent="1" source="75QqTKFgofHjlk_VrofV-3" target="75QqTKFgofHjlk_VrofV-1">
          <mxGeometry width="50" height="50" relative="1" as="geometry">
            <mxPoint x="1231" y="582" as="sourcePoint" />
            <mxPoint x="1281" y="532" as="targetPoint" />
          </mxGeometry>
        </mxCell>
        <mxCell id="75QqTKFgofHjlk_VrofV-12" value="" style="endArrow=none;html=1;rounded=0;entryX=0;entryY=0.5;entryDx=0;entryDy=0;" edge="1" parent="1" source="75QqTKFgofHjlk_VrofV-1" target="75QqTKFgofHjlk_VrofV-7">
          <mxGeometry width="50" height="50" relative="1" as="geometry">
            <mxPoint x="1231" y="582" as="sourcePoint" />
            <mxPoint x="1281" y="532" as="targetPoint" />
          </mxGeometry>
        </mxCell>
        <mxCell id="75QqTKFgofHjlk_VrofV-24" value="" style="rounded=0;whiteSpace=wrap;html=1;" vertex="1" parent="1">
          <mxGeometry x="850" y="940" width="125" height="40" as="geometry" />
        </mxCell>
        <mxCell id="75QqTKFgofHjlk_VrofV-23" value="&lt;font style=&quot;font-size: 15px;&quot; face=&quot;Times New Roman&quot;&gt;Пользователь&lt;/font&gt;" style="shape=umlActor;verticalLabelPosition=bottom;verticalAlign=top;html=1;outlineConnect=0;" vertex="1" parent="1">
          <mxGeometry x="877.5" y="840" width="70" height="100" as="geometry" />
        </mxCell>
        <mxCell id="75QqTKFgofHjlk_VrofV-26" value="" style="endArrow=none;html=1;rounded=0;dashed=1;entryX=0.5;entryY=1;entryDx=0;entryDy=0;" edge="1" parent="1" source="75QqTKFgofHjlk_VrofV-36" target="75QqTKFgofHjlk_VrofV-24">
          <mxGeometry width="50" height="50" relative="1" as="geometry">
            <mxPoint x="912.5" y="1590" as="sourcePoint" />
            <mxPoint x="987.5" y="990" as="targetPoint" />
          </mxGeometry>
        </mxCell>
        <mxCell id="75QqTKFgofHjlk_VrofV-27" value="" style="rounded=0;whiteSpace=wrap;html=1;" vertex="1" parent="1">
          <mxGeometry x="997.5" y="940" width="125" height="40" as="geometry" />
        </mxCell>
        <mxCell id="75QqTKFgofHjlk_VrofV-28" value="&lt;font face=&quot;Times New Roman&quot;&gt;&lt;span style=&quot;font-size: 15px;&quot;&gt;Интерфейс&lt;/span&gt;&lt;/font&gt;" style="shape=umlActor;verticalLabelPosition=bottom;verticalAlign=top;html=1;outlineConnect=0;" vertex="1" parent="1">
          <mxGeometry x="1025" y="840" width="70" height="100" as="geometry" />
        </mxCell>
        <mxCell id="75QqTKFgofHjlk_VrofV-29" value="" style="endArrow=none;html=1;rounded=0;dashed=1;entryX=0.5;entryY=1;entryDx=0;entryDy=0;" edge="1" parent="1" target="75QqTKFgofHjlk_VrofV-27" source="75QqTKFgofHjlk_VrofV-41">
          <mxGeometry width="50" height="50" relative="1" as="geometry">
            <mxPoint x="1060" y="1590" as="sourcePoint" />
            <mxPoint x="1135" y="990" as="targetPoint" />
          </mxGeometry>
        </mxCell>
        <mxCell id="75QqTKFgofHjlk_VrofV-30" value="" style="rounded=0;whiteSpace=wrap;html=1;" vertex="1" parent="1">
          <mxGeometry x="1142.5" y="940" width="125" height="40" as="geometry" />
        </mxCell>
        <mxCell id="75QqTKFgofHjlk_VrofV-31" value="&lt;font style=&quot;font-size: 15px;&quot; face=&quot;Times New Roman&quot;&gt;Класс&lt;/font&gt;" style="shape=umlActor;verticalLabelPosition=bottom;verticalAlign=top;html=1;outlineConnect=0;" vertex="1" parent="1">
          <mxGeometry x="1170" y="840" width="70" height="100" as="geometry" />
        </mxCell>
        <mxCell id="75QqTKFgofHjlk_VrofV-32" value="" style="endArrow=none;html=1;rounded=0;dashed=1;entryX=0.5;entryY=1;entryDx=0;entryDy=0;" edge="1" parent="1" target="75QqTKFgofHjlk_VrofV-30" source="75QqTKFgofHjlk_VrofV-45">
          <mxGeometry width="50" height="50" relative="1" as="geometry">
            <mxPoint x="1205" y="1590" as="sourcePoint" />
            <mxPoint x="1280" y="990" as="targetPoint" />
          </mxGeometry>
        </mxCell>
        <mxCell id="75QqTKFgofHjlk_VrofV-33" value="" style="rounded=0;whiteSpace=wrap;html=1;" vertex="1" parent="1">
          <mxGeometry x="1288.5" y="940" width="125" height="50" as="geometry" />
        </mxCell>
        <mxCell id="75QqTKFgofHjlk_VrofV-34" value="&lt;font face=&quot;Times New Roman&quot;&gt;&lt;span style=&quot;font-size: 15px;&quot;&gt;Система&amp;nbsp;&lt;/span&gt;&lt;/font&gt;&lt;div&gt;&lt;font face=&quot;Times New Roman&quot;&gt;&lt;span style=&quot;font-size: 15px;&quot;&gt;обработки&lt;/span&gt;&lt;/font&gt;&lt;/div&gt;" style="shape=umlActor;verticalLabelPosition=bottom;verticalAlign=top;html=1;outlineConnect=0;" vertex="1" parent="1">
          <mxGeometry x="1316" y="840" width="70" height="100" as="geometry" />
        </mxCell>
        <mxCell id="75QqTKFgofHjlk_VrofV-35" value="" style="endArrow=none;html=1;rounded=0;dashed=1;entryX=0.5;entryY=1;entryDx=0;entryDy=0;" edge="1" parent="1" target="75QqTKFgofHjlk_VrofV-33" source="75QqTKFgofHjlk_VrofV-60">
          <mxGeometry width="50" height="50" relative="1" as="geometry">
            <mxPoint x="1351" y="1590" as="sourcePoint" />
            <mxPoint x="1426" y="990" as="targetPoint" />
          </mxGeometry>
        </mxCell>
        <mxCell id="75QqTKFgofHjlk_VrofV-37" value="" style="endArrow=none;html=1;rounded=0;dashed=1;entryX=0.5;entryY=1;entryDx=0;entryDy=0;" edge="1" parent="1" target="75QqTKFgofHjlk_VrofV-36">
          <mxGeometry width="50" height="50" relative="1" as="geometry">
            <mxPoint x="912.5" y="1300" as="sourcePoint" />
            <mxPoint x="912.5" y="980" as="targetPoint" />
          </mxGeometry>
        </mxCell>
        <mxCell id="75QqTKFgofHjlk_VrofV-36" value="" style="rounded=0;whiteSpace=wrap;html=1;" vertex="1" parent="1">
          <mxGeometry x="907.5" y="1000" width="10" height="60" as="geometry" />
        </mxCell>
        <mxCell id="75QqTKFgofHjlk_VrofV-42" value="" style="endArrow=none;html=1;rounded=0;dashed=1;entryX=0.5;entryY=1;entryDx=0;entryDy=0;" edge="1" parent="1" target="75QqTKFgofHjlk_VrofV-41">
          <mxGeometry width="50" height="50" relative="1" as="geometry">
            <mxPoint x="1060.5" y="1300" as="sourcePoint" />
            <mxPoint x="1060.5" y="980" as="targetPoint" />
          </mxGeometry>
        </mxCell>
        <mxCell id="75QqTKFgofHjlk_VrofV-43" value="" style="endArrow=open;html=1;rounded=0;endFill=0;exitX=0.75;exitY=0;exitDx=0;exitDy=0;entryX=0;entryY=0;entryDx=0;entryDy=0;" edge="1" parent="1" source="75QqTKFgofHjlk_VrofV-36" target="75QqTKFgofHjlk_VrofV-41">
          <mxGeometry width="50" height="50" relative="1" as="geometry">
            <mxPoint x="1147.5" y="1120" as="sourcePoint" />
            <mxPoint x="1197.5" y="1070" as="targetPoint" />
          </mxGeometry>
        </mxCell>
        <mxCell id="75QqTKFgofHjlk_VrofV-44" value="&lt;font style=&quot;font-size: 13px;&quot; face=&quot;Times New Roman&quot;&gt;Ввод кол. посещенй&lt;/font&gt;" style="text;html=1;align=center;verticalAlign=middle;resizable=0;points=[];autosize=1;strokeColor=none;fillColor=none;" vertex="1" parent="1">
          <mxGeometry x="917.5" y="1000" width="130" height="30" as="geometry" />
        </mxCell>
        <mxCell id="75QqTKFgofHjlk_VrofV-46" value="" style="endArrow=none;html=1;rounded=0;dashed=1;entryX=0.5;entryY=1;entryDx=0;entryDy=0;" edge="1" parent="1" target="75QqTKFgofHjlk_VrofV-45">
          <mxGeometry width="50" height="50" relative="1" as="geometry">
            <mxPoint x="1205.5" y="1300" as="sourcePoint" />
            <mxPoint x="1205.5" y="980" as="targetPoint" />
          </mxGeometry>
        </mxCell>
        <mxCell id="75QqTKFgofHjlk_VrofV-45" value="" style="rounded=0;whiteSpace=wrap;html=1;" vertex="1" parent="1">
          <mxGeometry x="1200" y="1050" width="10" height="150" as="geometry" />
        </mxCell>
        <mxCell id="75QqTKFgofHjlk_VrofV-47" value="" style="rounded=0;whiteSpace=wrap;html=1;" vertex="1" parent="1">
          <mxGeometry x="1437.5" y="940" width="125" height="50" as="geometry" />
        </mxCell>
        <mxCell id="75QqTKFgofHjlk_VrofV-57" value="" style="endArrow=open;html=1;rounded=0;endFill=0;entryX=0;entryY=0;entryDx=0;entryDy=0;" edge="1" parent="1" target="75QqTKFgofHjlk_VrofV-45">
          <mxGeometry width="50" height="50" relative="1" as="geometry">
            <mxPoint x="1057.5" y="1050" as="sourcePoint" />
            <mxPoint x="1197.5" y="1000" as="targetPoint" />
          </mxGeometry>
        </mxCell>
        <mxCell id="75QqTKFgofHjlk_VrofV-48" value="&lt;font style=&quot;font-size: 15px;&quot; face=&quot;Times New Roman&quot;&gt;Система&amp;nbsp;&lt;/font&gt;&lt;div&gt;&lt;font style=&quot;font-size: 15px;&quot; face=&quot;Times New Roman&quot;&gt;визуализации&lt;/font&gt;&lt;/div&gt;" style="shape=umlActor;verticalLabelPosition=bottom;verticalAlign=top;html=1;outlineConnect=0;" vertex="1" parent="1">
          <mxGeometry x="1465" y="840" width="70" height="100" as="geometry" />
        </mxCell>
        <mxCell id="75QqTKFgofHjlk_VrofV-49" value="" style="endArrow=none;html=1;rounded=0;dashed=1;entryX=0.5;entryY=1;entryDx=0;entryDy=0;" edge="1" parent="1" target="75QqTKFgofHjlk_VrofV-47" source="75QqTKFgofHjlk_VrofV-64">
          <mxGeometry width="50" height="50" relative="1" as="geometry">
            <mxPoint x="1500" y="1590" as="sourcePoint" />
            <mxPoint x="1575" y="990" as="targetPoint" />
          </mxGeometry>
        </mxCell>
        <mxCell id="75QqTKFgofHjlk_VrofV-56" value="" style="endArrow=none;html=1;rounded=0;endFill=0;dashed=1;startArrow=open;startFill=0;" edge="1" parent="1">
          <mxGeometry width="50" height="50" relative="1" as="geometry">
            <mxPoint x="917.5" y="1060" as="sourcePoint" />
            <mxPoint x="1055" y="1060" as="targetPoint" />
          </mxGeometry>
        </mxCell>
        <mxCell id="75QqTKFgofHjlk_VrofV-58" value="&lt;font style=&quot;font-size: 13px;&quot; face=&quot;Times New Roman&quot;&gt;Сохранение данных&lt;/font&gt;" style="text;html=1;align=center;verticalAlign=middle;resizable=0;points=[];autosize=1;strokeColor=none;fillColor=none;" vertex="1" parent="1">
          <mxGeometry x="1065" y="1050" width="130" height="30" as="geometry" />
        </mxCell>
        <mxCell id="75QqTKFgofHjlk_VrofV-59" value="" style="endArrow=open;html=1;rounded=0;endFill=0;entryX=0;entryY=0;entryDx=0;entryDy=0;" edge="1" parent="1" target="75QqTKFgofHjlk_VrofV-60">
          <mxGeometry width="50" height="50" relative="1" as="geometry">
            <mxPoint x="1210.5" y="1100" as="sourcePoint" />
            <mxPoint x="1350" y="1000" as="targetPoint" />
          </mxGeometry>
        </mxCell>
        <mxCell id="75QqTKFgofHjlk_VrofV-61" value="" style="endArrow=none;html=1;rounded=0;dashed=1;entryX=0.5;entryY=1;entryDx=0;entryDy=0;" edge="1" parent="1" target="75QqTKFgofHjlk_VrofV-60">
          <mxGeometry width="50" height="50" relative="1" as="geometry">
            <mxPoint x="1351.5" y="1300" as="sourcePoint" />
            <mxPoint x="1351.5" y="990" as="targetPoint" />
          </mxGeometry>
        </mxCell>
        <mxCell id="75QqTKFgofHjlk_VrofV-60" value="" style="rounded=0;whiteSpace=wrap;html=1;" vertex="1" parent="1">
          <mxGeometry x="1346" y="1100" width="10" height="150" as="geometry" />
        </mxCell>
        <mxCell id="75QqTKFgofHjlk_VrofV-62" value="&lt;font style=&quot;font-size: 13px;&quot; face=&quot;Times New Roman&quot;&gt;Показ графия и&amp;nbsp;&lt;/font&gt;&lt;div&gt;&lt;font style=&quot;font-size: 13px;&quot; face=&quot;Times New Roman&quot;&gt;ожидание действий&lt;/font&gt;&lt;/div&gt;" style="text;html=1;align=center;verticalAlign=middle;resizable=0;points=[];autosize=1;strokeColor=none;fillColor=none;" vertex="1" parent="1">
          <mxGeometry x="917.5" y="1070" width="130" height="40" as="geometry" />
        </mxCell>
        <mxCell id="75QqTKFgofHjlk_VrofV-63" value="&lt;font style=&quot;font-size: 13px;&quot; face=&quot;Times New Roman&quot;&gt;Расчеты для&amp;nbsp;&lt;/font&gt;&lt;div&gt;&lt;font style=&quot;font-size: 13px;&quot; face=&quot;Times New Roman&quot;&gt;построения графика&lt;/font&gt;&lt;/div&gt;" style="text;html=1;align=center;verticalAlign=middle;resizable=0;points=[];autosize=1;strokeColor=none;fillColor=none;" vertex="1" parent="1">
          <mxGeometry x="1206" y="1100" width="140" height="40" as="geometry" />
        </mxCell>
        <mxCell id="75QqTKFgofHjlk_VrofV-41" value="" style="rounded=0;whiteSpace=wrap;html=1;" vertex="1" parent="1">
          <mxGeometry x="1055" y="1000" width="10" height="110" as="geometry" />
        </mxCell>
        <mxCell id="75QqTKFgofHjlk_VrofV-65" value="" style="endArrow=none;html=1;rounded=0;dashed=1;entryX=0.5;entryY=1;entryDx=0;entryDy=0;" edge="1" parent="1" target="75QqTKFgofHjlk_VrofV-64">
          <mxGeometry width="50" height="50" relative="1" as="geometry">
            <mxPoint x="1500.5" y="1300" as="sourcePoint" />
            <mxPoint x="1500.5" y="990" as="targetPoint" />
          </mxGeometry>
        </mxCell>
        <mxCell id="75QqTKFgofHjlk_VrofV-64" value="" style="rounded=0;whiteSpace=wrap;html=1;" vertex="1" parent="1">
          <mxGeometry x="1495" y="1140" width="10" height="110" as="geometry" />
        </mxCell>
        <mxCell id="75QqTKFgofHjlk_VrofV-66" value="" style="endArrow=open;html=1;rounded=0;endFill=0;exitX=0.75;exitY=0;exitDx=0;exitDy=0;entryX=0;entryY=0;entryDx=0;entryDy=0;" edge="1" parent="1">
          <mxGeometry width="50" height="50" relative="1" as="geometry">
            <mxPoint x="1356" y="1140" as="sourcePoint" />
            <mxPoint x="1496" y="1140" as="targetPoint" />
          </mxGeometry>
        </mxCell>
        <mxCell id="75QqTKFgofHjlk_VrofV-67" value="&lt;font style=&quot;font-size: 13px;&quot; face=&quot;Times New Roman&quot;&gt;Запрос на&amp;nbsp;&lt;/font&gt;&lt;div&gt;&lt;font style=&quot;font-size: 13px;&quot; face=&quot;Times New Roman&quot;&gt;генерацию графика&lt;/font&gt;&lt;/div&gt;" style="text;html=1;align=center;verticalAlign=middle;resizable=0;points=[];autosize=1;strokeColor=none;fillColor=none;" vertex="1" parent="1">
          <mxGeometry x="1358" y="1140" width="130" height="40" as="geometry" />
        </mxCell>
        <mxCell id="75QqTKFgofHjlk_VrofV-68" value="" style="endArrow=none;html=1;rounded=0;endFill=0;exitX=0.75;exitY=0;exitDx=0;exitDy=0;entryX=0;entryY=0;entryDx=0;entryDy=0;dashed=1;startArrow=open;startFill=0;" edge="1" parent="1">
          <mxGeometry width="50" height="50" relative="1" as="geometry">
            <mxPoint x="1358" y="1250" as="sourcePoint" />
            <mxPoint x="1498" y="1250" as="targetPoint" />
          </mxGeometry>
        </mxCell>
        <mxCell id="75QqTKFgofHjlk_VrofV-69" value="&lt;font style=&quot;font-size: 13px;&quot; face=&quot;Times New Roman&quot;&gt;Готовый график&lt;/font&gt;" style="text;html=1;align=center;verticalAlign=middle;resizable=0;points=[];autosize=1;strokeColor=none;fillColor=none;" vertex="1" parent="1">
          <mxGeometry x="1368" y="1210" width="110" height="30" as="geometry" />
        </mxCell>
        <mxCell id="75QqTKFgofHjlk_VrofV-70" value="" style="endArrow=none;html=1;rounded=0;endFill=0;entryX=0.15;entryY=0.671;entryDx=0;entryDy=0;dashed=1;startArrow=open;startFill=0;entryPerimeter=0;" edge="1" parent="1" target="75QqTKFgofHjlk_VrofV-60">
          <mxGeometry width="50" height="50" relative="1" as="geometry">
            <mxPoint x="1207.5" y="1200" as="sourcePoint" />
            <mxPoint x="1346" y="1200" as="targetPoint" />
          </mxGeometry>
        </mxCell>
        <mxCell id="75QqTKFgofHjlk_VrofV-72" value="&lt;font face=&quot;Times New Roman&quot;&gt;&lt;span style=&quot;font-size: 13px;&quot;&gt;Передает сообщение&amp;nbsp;&lt;/span&gt;&lt;/font&gt;&lt;div&gt;&lt;font face=&quot;Times New Roman&quot;&gt;&lt;span style=&quot;font-size: 13px;&quot;&gt;и график&lt;/span&gt;&lt;/font&gt;&lt;/div&gt;" style="text;html=1;align=center;verticalAlign=middle;resizable=0;points=[];autosize=1;strokeColor=none;fillColor=none;" vertex="1" parent="1">
          <mxGeometry x="1207.5" y="1210" width="140" height="40" as="geometry" />
        </mxCell>
        <mxCell id="75QqTKFgofHjlk_VrofV-73" value="" style="endArrow=none;html=1;rounded=0;endFill=0;exitX=0.75;exitY=0;exitDx=0;exitDy=0;entryX=0;entryY=0;entryDx=0;entryDy=0;dashed=1;startArrow=open;startFill=0;" edge="1" parent="1">
          <mxGeometry width="50" height="50" relative="1" as="geometry">
            <mxPoint x="1060" y="1110" as="sourcePoint" />
            <mxPoint x="1200" y="1110" as="targetPoint" />
          </mxGeometry>
        </mxCell>
        <mxCell id="75QqTKFgofHjlk_VrofV-75" value="&lt;font style=&quot;font-size: 13px;&quot; face=&quot;Times New Roman&quot;&gt;Сообщение о&amp;nbsp;&lt;/font&gt;&lt;div&gt;&lt;font style=&quot;font-size: 13px;&quot; face=&quot;Times New Roman&quot;&gt;заполненом классе&amp;nbsp;&lt;/font&gt;&lt;/div&gt;&lt;div&gt;&lt;font style=&quot;font-size: 13px;&quot; face=&quot;Times New Roman&quot;&gt;и готовый график&lt;/font&gt;&lt;/div&gt;" style="text;html=1;align=center;verticalAlign=middle;resizable=0;points=[];autosize=1;strokeColor=none;fillColor=none;" vertex="1" parent="1">
          <mxGeometry x="1065" y="1120" width="130" height="60" as="geometry" />
        </mxCell>
        <mxCell id="75QqTKFgofHjlk_VrofV-80" value="&lt;font style=&quot;font-size: 14px;&quot; face=&quot;Times New Roman&quot;&gt;Пользователь&lt;/font&gt;" style="swimlane;whiteSpace=wrap;html=1;" vertex="1" parent="1">
          <mxGeometry x="20" y="840" width="152.5" height="800" as="geometry" />
        </mxCell>
        <mxCell id="75QqTKFgofHjlk_VrofV-85" value="" style="ellipse;html=1;" vertex="1" parent="75QqTKFgofHjlk_VrofV-80">
          <mxGeometry x="62.5" y="50" width="30" height="30" as="geometry" />
        </mxCell>
        <mxCell id="75QqTKFgofHjlk_VrofV-95" value="&lt;font style=&quot;font-size: 14px;&quot; face=&quot;Times New Roman&quot;&gt;Запукает приложение&lt;/font&gt;" style="rounded=1;whiteSpace=wrap;html=1;" vertex="1" parent="75QqTKFgofHjlk_VrofV-80">
          <mxGeometry x="19.369999999999997" y="120" width="116.25" height="50" as="geometry" />
        </mxCell>
        <mxCell id="75QqTKFgofHjlk_VrofV-86" value="" style="endArrow=classic;html=1;rounded=0;align=center;verticalAlign=top;endFill=1;labelBackgroundColor=none;endSize=6;entryX=0.5;entryY=0;entryDx=0;entryDy=0;" edge="1" source="75QqTKFgofHjlk_VrofV-85" parent="75QqTKFgofHjlk_VrofV-80" target="75QqTKFgofHjlk_VrofV-95">
          <mxGeometry relative="1" as="geometry">
            <mxPoint x="77.5" y="120" as="targetPoint" />
            <Array as="points">
              <mxPoint x="77.5" y="110" />
            </Array>
          </mxGeometry>
        </mxCell>
        <mxCell id="75QqTKFgofHjlk_VrofV-97" value="" style="endArrow=classic;html=1;rounded=0;exitX=0.5;exitY=1;exitDx=0;exitDy=0;entryX=0.5;entryY=0;entryDx=0;entryDy=0;" edge="1" parent="75QqTKFgofHjlk_VrofV-80" target="75QqTKFgofHjlk_VrofV-87">
          <mxGeometry width="50" height="50" relative="1" as="geometry">
            <mxPoint x="72.5" y="170" as="sourcePoint" />
            <mxPoint x="228.5" y="205" as="targetPoint" />
            <Array as="points">
              <mxPoint x="72.5" y="190" />
              <mxPoint x="225.5" y="190" />
            </Array>
          </mxGeometry>
        </mxCell>
        <mxCell id="75QqTKFgofHjlk_VrofV-81" value="&lt;font style=&quot;font-size: 14px;&quot; face=&quot;Times New Roman&quot;&gt;Интерфейс&lt;/font&gt;" style="swimlane;whiteSpace=wrap;html=1;startSize=23;direction=east;" vertex="1" parent="1">
          <mxGeometry x="172.5" y="840" width="150" height="800" as="geometry" />
        </mxCell>
        <mxCell id="75QqTKFgofHjlk_VrofV-98" value="&lt;font style=&quot;font-size: 14px;&quot; face=&quot;Times New Roman&quot;&gt;Отображение графика и сообщения&lt;/font&gt;" style="rounded=1;whiteSpace=wrap;html=1;" vertex="1" parent="75QqTKFgofHjlk_VrofV-81">
          <mxGeometry x="16.88" y="650" width="116.25" height="50" as="geometry" />
        </mxCell>
        <mxCell id="75QqTKFgofHjlk_VrofV-101" value="" style="ellipse;html=1;shape=endState;fillColor=strokeColor;" vertex="1" parent="75QqTKFgofHjlk_VrofV-81">
          <mxGeometry x="54.07" y="730" width="41.87" height="40" as="geometry" />
        </mxCell>
        <mxCell id="75QqTKFgofHjlk_VrofV-102" value="" style="endArrow=classic;html=1;rounded=0;exitX=0.5;exitY=1;exitDx=0;exitDy=0;entryX=0.5;entryY=0;entryDx=0;entryDy=0;" edge="1" parent="75QqTKFgofHjlk_VrofV-81" source="75QqTKFgofHjlk_VrofV-98" target="75QqTKFgofHjlk_VrofV-101">
          <mxGeometry width="50" height="50" relative="1" as="geometry">
            <mxPoint x="240" y="700" as="sourcePoint" />
            <mxPoint x="290" y="650" as="targetPoint" />
          </mxGeometry>
        </mxCell>
        <mxCell id="75QqTKFgofHjlk_VrofV-82" value="&lt;font style=&quot;font-size: 14px;&quot; face=&quot;Times New Roman&quot;&gt;Класс&lt;/font&gt;" style="swimlane;whiteSpace=wrap;html=1;" vertex="1" parent="1">
          <mxGeometry x="322.5" y="840" width="150" height="800" as="geometry" />
        </mxCell>
        <mxCell id="75QqTKFgofHjlk_VrofV-87" value="&lt;font style=&quot;font-size: 14px;&quot; face=&quot;Times New Roman&quot;&gt;Запрашивает кол. восещений&lt;/font&gt;" style="rounded=1;whiteSpace=wrap;html=1;" vertex="1" parent="75QqTKFgofHjlk_VrofV-82">
          <mxGeometry x="-135" y="210" width="116.25" height="50" as="geometry" />
        </mxCell>
        <mxCell id="75QqTKFgofHjlk_VrofV-88" value="&lt;font style=&quot;font-size: 14px;&quot; face=&quot;Times New Roman&quot;&gt;Запрашивает данные для заполнения&lt;/font&gt;" style="rounded=1;whiteSpace=wrap;html=1;" vertex="1" parent="75QqTKFgofHjlk_VrofV-82">
          <mxGeometry x="20.620000000000005" y="295" width="116.25" height="50" as="geometry" />
        </mxCell>
        <mxCell id="75QqTKFgofHjlk_VrofV-93" value="" style="endArrow=classic;html=1;rounded=0;exitX=0.5;exitY=1;exitDx=0;exitDy=0;entryX=0.5;entryY=0;entryDx=0;entryDy=0;" edge="1" parent="75QqTKFgofHjlk_VrofV-82">
          <mxGeometry width="50" height="50" relative="1" as="geometry">
            <mxPoint x="80.5" y="345" as="sourcePoint" />
            <mxPoint x="236.5" y="380" as="targetPoint" />
            <Array as="points">
              <mxPoint x="80.5" y="365" />
              <mxPoint x="236.5" y="365" />
            </Array>
          </mxGeometry>
        </mxCell>
        <mxCell id="75QqTKFgofHjlk_VrofV-89" value="&lt;font style=&quot;font-size: 14px;&quot; face=&quot;Times New Roman&quot;&gt;Производит расчеты для пострроения&lt;/font&gt;" style="rounded=1;whiteSpace=wrap;html=1;" vertex="1" parent="75QqTKFgofHjlk_VrofV-82">
          <mxGeometry x="173.12" y="380" width="116.25" height="50" as="geometry" />
        </mxCell>
        <mxCell id="75QqTKFgofHjlk_VrofV-94" value="" style="endArrow=classic;html=1;rounded=0;exitX=0.5;exitY=1;exitDx=0;exitDy=0;entryX=0.5;entryY=0;entryDx=0;entryDy=0;" edge="1" parent="75QqTKFgofHjlk_VrofV-82" target="75QqTKFgofHjlk_VrofV-90">
          <mxGeometry width="50" height="50" relative="1" as="geometry">
            <mxPoint x="227.5" y="430" as="sourcePoint" />
            <mxPoint x="383.5" y="465" as="targetPoint" />
            <Array as="points">
              <mxPoint x="227.5" y="450" />
              <mxPoint x="385" y="450" />
            </Array>
          </mxGeometry>
        </mxCell>
        <mxCell id="75QqTKFgofHjlk_VrofV-90" value="&lt;font style=&quot;font-size: 14px;&quot; face=&quot;Times New Roman&quot;&gt;Воспроизводит график по данным&lt;/font&gt;" style="rounded=1;whiteSpace=wrap;html=1;" vertex="1" parent="75QqTKFgofHjlk_VrofV-82">
          <mxGeometry x="327.25" y="470" width="116.25" height="50" as="geometry" />
        </mxCell>
        <mxCell id="75QqTKFgofHjlk_VrofV-92" value="" style="endArrow=classic;html=1;rounded=0;exitX=0.5;exitY=1;exitDx=0;exitDy=0;entryX=0.5;entryY=0;entryDx=0;entryDy=0;" edge="1" parent="75QqTKFgofHjlk_VrofV-82" source="75QqTKFgofHjlk_VrofV-87" target="75QqTKFgofHjlk_VrofV-88">
          <mxGeometry width="50" height="50" relative="1" as="geometry">
            <mxPoint x="20" y="280" as="sourcePoint" />
            <mxPoint x="70" y="230" as="targetPoint" />
            <Array as="points">
              <mxPoint x="-77" y="280" />
              <mxPoint x="79" y="280" />
            </Array>
          </mxGeometry>
        </mxCell>
        <mxCell id="75QqTKFgofHjlk_VrofV-83" value="&lt;font face=&quot;Times New Roman&quot;&gt;Система обработки&lt;/font&gt;" style="swimlane;whiteSpace=wrap;html=1;fontSize=14;" vertex="1" parent="1">
          <mxGeometry x="472.5" y="840" width="152.5" height="800" as="geometry" />
        </mxCell>
        <mxCell id="75QqTKFgofHjlk_VrofV-91" value="&lt;font style=&quot;font-size: 14px;&quot; face=&quot;Times New Roman&quot;&gt;Передает сообщение и график&lt;/font&gt;" style="rounded=1;whiteSpace=wrap;html=1;" vertex="1" parent="75QqTKFgofHjlk_VrofV-83">
          <mxGeometry x="18.130000000000003" y="560" width="116.25" height="50" as="geometry" />
        </mxCell>
        <mxCell id="75QqTKFgofHjlk_VrofV-84" value="&lt;font face=&quot;Times New Roman&quot;&gt;Система визуализации&lt;/font&gt;" style="swimlane;whiteSpace=wrap;html=1;fontSize=14;" vertex="1" parent="1">
          <mxGeometry x="625" y="840" width="165" height="800" as="geometry" />
        </mxCell>
        <mxCell id="75QqTKFgofHjlk_VrofV-99" value="" style="endArrow=classic;html=1;rounded=0;endFill=1;exitX=0.5;exitY=1;exitDx=0;exitDy=0;entryX=0.5;entryY=0;entryDx=0;entryDy=0;" edge="1" parent="1" source="75QqTKFgofHjlk_VrofV-90" target="75QqTKFgofHjlk_VrofV-91">
          <mxGeometry width="50" height="50" relative="1" as="geometry">
            <mxPoint x="412.5" y="1340" as="sourcePoint" />
            <mxPoint x="462.5" y="1290" as="targetPoint" />
            <Array as="points">
              <mxPoint x="707.5" y="1380" />
              <mxPoint x="548.5" y="1380" />
            </Array>
          </mxGeometry>
        </mxCell>
        <mxCell id="75QqTKFgofHjlk_VrofV-100" value="" style="endArrow=classic;html=1;rounded=0;exitX=0.5;exitY=1;exitDx=0;exitDy=0;entryX=0.5;entryY=0;entryDx=0;entryDy=0;" edge="1" parent="1" source="75QqTKFgofHjlk_VrofV-91" target="75QqTKFgofHjlk_VrofV-98">
          <mxGeometry width="50" height="50" relative="1" as="geometry">
            <mxPoint x="412.5" y="1340" as="sourcePoint" />
            <mxPoint x="462.5" y="1290" as="targetPoint" />
            <Array as="points">
              <mxPoint x="548.5" y="1470" />
              <mxPoint x="247.5" y="1470" />
            </Array>
          </mxGeometry>
        </mxCell>
        <mxCell id="75QqTKFgofHjlk_VrofV-104" value="" style="ellipse;fillColor=strokeColor;html=1;" vertex="1" parent="1">
          <mxGeometry x="1780.94" y="10" width="40" height="40" as="geometry" />
        </mxCell>
        <mxCell id="75QqTKFgofHjlk_VrofV-105" value="" style="rounded=1;whiteSpace=wrap;html=1;" vertex="1" parent="1">
          <mxGeometry x="1710" y="70" width="181.88" height="100" as="geometry" />
        </mxCell>
        <mxCell id="75QqTKFgofHjlk_VrofV-106" value="" style="endArrow=none;html=1;rounded=0;exitX=0;exitY=0.25;exitDx=0;exitDy=0;entryX=1;entryY=0.25;entryDx=0;entryDy=0;" edge="1" parent="1" source="75QqTKFgofHjlk_VrofV-105" target="75QqTKFgofHjlk_VrofV-105">
          <mxGeometry width="50" height="50" relative="1" as="geometry">
            <mxPoint x="1826.88" y="60" as="sourcePoint" />
            <mxPoint x="1876.88" y="10" as="targetPoint" />
          </mxGeometry>
        </mxCell>
        <mxCell id="75QqTKFgofHjlk_VrofV-108" value="&lt;font face=&quot;Times New Roman&quot;&gt;&lt;span style=&quot;font-size: 15px;&quot;&gt;Главное окно&lt;/span&gt;&lt;/font&gt;" style="text;html=1;align=center;verticalAlign=middle;resizable=0;points=[];autosize=1;strokeColor=none;fillColor=none;" vertex="1" parent="1">
          <mxGeometry x="1745.94" y="70" width="110" height="30" as="geometry" />
        </mxCell>
        <mxCell id="75QqTKFgofHjlk_VrofV-109" value="&lt;font face=&quot;Times New Roman&quot;&gt;&lt;span style=&quot;font-size: 15px;&quot;&gt;Ожидание действий&amp;nbsp;&lt;/span&gt;&lt;/font&gt;&lt;div&gt;&lt;font face=&quot;Times New Roman&quot;&gt;&lt;span style=&quot;font-size: 15px;&quot;&gt;от пользователя&lt;/span&gt;&lt;/font&gt;&lt;/div&gt;" style="text;html=1;align=center;verticalAlign=middle;resizable=0;points=[];autosize=1;strokeColor=none;fillColor=none;" vertex="1" parent="1">
          <mxGeometry x="1720.94" y="110" width="160" height="50" as="geometry" />
        </mxCell>
        <mxCell id="75QqTKFgofHjlk_VrofV-111" value="" style="rounded=1;whiteSpace=wrap;html=1;" vertex="1" parent="1">
          <mxGeometry x="1630" y="190" width="341.88" height="670" as="geometry" />
        </mxCell>
        <mxCell id="75QqTKFgofHjlk_VrofV-112" value="" style="endArrow=none;html=1;rounded=0;exitX=0.005;exitY=0.076;exitDx=0;exitDy=0;entryX=0.993;entryY=0.079;entryDx=0;entryDy=0;exitPerimeter=0;entryPerimeter=0;" edge="1" parent="1">
          <mxGeometry width="50" height="50" relative="1" as="geometry">
            <mxPoint x="1632.0493999999999" y="220" as="sourcePoint" />
            <mxPoint x="1969.82684" y="222.07000000000016" as="targetPoint" />
          </mxGeometry>
        </mxCell>
        <mxCell id="75QqTKFgofHjlk_VrofV-115" value="&lt;font face=&quot;Times New Roman&quot;&gt;&lt;span style=&quot;font-size: 15px;&quot;&gt;Программа&lt;/span&gt;&lt;/font&gt;" style="text;html=1;align=center;verticalAlign=middle;resizable=0;points=[];autosize=1;strokeColor=none;fillColor=none;" vertex="1" parent="1">
          <mxGeometry x="1747.5" y="190" width="100" height="30" as="geometry" />
        </mxCell>
        <mxCell id="75QqTKFgofHjlk_VrofV-116" value="" style="ellipse;fillColor=strokeColor;html=1;" vertex="1" parent="1">
          <mxGeometry x="1785" y="230" width="40" height="40" as="geometry" />
        </mxCell>
        <mxCell id="75QqTKFgofHjlk_VrofV-117" value="" style="ellipse;html=1;shape=endState;fillColor=strokeColor;" vertex="1" parent="1">
          <mxGeometry x="1773.44" y="800" width="55" height="50" as="geometry" />
        </mxCell>
        <mxCell id="75QqTKFgofHjlk_VrofV-118" value="" style="rounded=1;whiteSpace=wrap;html=1;" vertex="1" parent="1">
          <mxGeometry x="1714.06" y="290" width="181.88" height="100" as="geometry" />
        </mxCell>
        <mxCell id="75QqTKFgofHjlk_VrofV-119" value="" style="endArrow=none;html=1;rounded=0;exitX=0;exitY=0.25;exitDx=0;exitDy=0;entryX=1;entryY=0.25;entryDx=0;entryDy=0;" edge="1" parent="1" source="75QqTKFgofHjlk_VrofV-118" target="75QqTKFgofHjlk_VrofV-118">
          <mxGeometry width="50" height="50" relative="1" as="geometry">
            <mxPoint x="1830.94" y="280" as="sourcePoint" />
            <mxPoint x="1880.94" y="230" as="targetPoint" />
          </mxGeometry>
        </mxCell>
        <mxCell id="75QqTKFgofHjlk_VrofV-122" value="&lt;font face=&quot;Times New Roman&quot;&gt;&lt;span style=&quot;font-size: 15px;&quot;&gt;Введено&lt;/span&gt;&lt;/font&gt;" style="text;html=1;align=center;verticalAlign=middle;resizable=0;points=[];autosize=1;strokeColor=none;fillColor=none;" vertex="1" parent="1">
          <mxGeometry x="1765" y="330" width="80" height="30" as="geometry" />
        </mxCell>
        <mxCell id="75QqTKFgofHjlk_VrofV-123" value="&lt;font face=&quot;Times New Roman&quot;&gt;&lt;span style=&quot;font-size: 15px;&quot;&gt;Кол. посещений&lt;/span&gt;&lt;/font&gt;" style="text;html=1;align=center;verticalAlign=middle;resizable=0;points=[];autosize=1;strokeColor=none;fillColor=none;" vertex="1" parent="1">
          <mxGeometry x="1740" y="290" width="130" height="30" as="geometry" />
        </mxCell>
        <mxCell id="75QqTKFgofHjlk_VrofV-124" value="" style="rounded=1;whiteSpace=wrap;html=1;" vertex="1" parent="1">
          <mxGeometry x="1714.06" y="420" width="181.88" height="100" as="geometry" />
        </mxCell>
        <mxCell id="75QqTKFgofHjlk_VrofV-125" value="" style="endArrow=none;html=1;rounded=0;exitX=0;exitY=0.25;exitDx=0;exitDy=0;entryX=1;entryY=0.25;entryDx=0;entryDy=0;" edge="1" parent="1" source="75QqTKFgofHjlk_VrofV-124" target="75QqTKFgofHjlk_VrofV-124">
          <mxGeometry width="50" height="50" relative="1" as="geometry">
            <mxPoint x="1830.94" y="410" as="sourcePoint" />
            <mxPoint x="1880.94" y="360" as="targetPoint" />
          </mxGeometry>
        </mxCell>
        <mxCell id="75QqTKFgofHjlk_VrofV-126" value="&lt;font face=&quot;Times New Roman&quot;&gt;&lt;span style=&quot;font-size: 15px;&quot;&gt;Добвлены&lt;/span&gt;&lt;/font&gt;" style="text;html=1;align=center;verticalAlign=middle;resizable=0;points=[];autosize=1;strokeColor=none;fillColor=none;" vertex="1" parent="1">
          <mxGeometry x="1760" y="460" width="90" height="30" as="geometry" />
        </mxCell>
        <mxCell id="75QqTKFgofHjlk_VrofV-127" value="&lt;font face=&quot;Times New Roman&quot;&gt;&lt;span style=&quot;font-size: 15px;&quot;&gt;Данные в класе&lt;/span&gt;&lt;/font&gt;" style="text;html=1;align=center;verticalAlign=middle;resizable=0;points=[];autosize=1;strokeColor=none;fillColor=none;" vertex="1" parent="1">
          <mxGeometry x="1745" y="420" width="120" height="30" as="geometry" />
        </mxCell>
        <mxCell id="75QqTKFgofHjlk_VrofV-128" value="" style="rounded=1;whiteSpace=wrap;html=1;" vertex="1" parent="1">
          <mxGeometry x="1714.06" y="550" width="181.88" height="100" as="geometry" />
        </mxCell>
        <mxCell id="75QqTKFgofHjlk_VrofV-129" value="" style="endArrow=none;html=1;rounded=0;exitX=0;exitY=0.25;exitDx=0;exitDy=0;entryX=1;entryY=0.25;entryDx=0;entryDy=0;" edge="1" parent="1" source="75QqTKFgofHjlk_VrofV-128" target="75QqTKFgofHjlk_VrofV-128">
          <mxGeometry width="50" height="50" relative="1" as="geometry">
            <mxPoint x="1830.94" y="540" as="sourcePoint" />
            <mxPoint x="1880.94" y="490" as="targetPoint" />
          </mxGeometry>
        </mxCell>
        <mxCell id="75QqTKFgofHjlk_VrofV-130" value="&lt;font face=&quot;Times New Roman&quot;&gt;&lt;span style=&quot;font-size: 15px;&quot;&gt;Произведен&lt;/span&gt;&lt;/font&gt;" style="text;html=1;align=center;verticalAlign=middle;resizable=0;points=[];autosize=1;strokeColor=none;fillColor=none;" vertex="1" parent="1">
          <mxGeometry x="1755" y="590" width="100" height="30" as="geometry" />
        </mxCell>
        <mxCell id="75QqTKFgofHjlk_VrofV-131" value="&lt;font face=&quot;Times New Roman&quot;&gt;&lt;span style=&quot;font-size: 15px;&quot;&gt;Расчет данных&lt;/span&gt;&lt;/font&gt;" style="text;html=1;align=center;verticalAlign=middle;resizable=0;points=[];autosize=1;strokeColor=none;fillColor=none;" vertex="1" parent="1">
          <mxGeometry x="1745" y="550" width="120" height="30" as="geometry" />
        </mxCell>
        <mxCell id="75QqTKFgofHjlk_VrofV-132" value="" style="rounded=1;whiteSpace=wrap;html=1;" vertex="1" parent="1">
          <mxGeometry x="1714.06" y="680" width="181.88" height="100" as="geometry" />
        </mxCell>
        <mxCell id="75QqTKFgofHjlk_VrofV-133" value="" style="endArrow=none;html=1;rounded=0;exitX=0;exitY=0.25;exitDx=0;exitDy=0;entryX=1;entryY=0.25;entryDx=0;entryDy=0;" edge="1" parent="1" source="75QqTKFgofHjlk_VrofV-132" target="75QqTKFgofHjlk_VrofV-132">
          <mxGeometry width="50" height="50" relative="1" as="geometry">
            <mxPoint x="1830.94" y="670" as="sourcePoint" />
            <mxPoint x="1880.94" y="620" as="targetPoint" />
          </mxGeometry>
        </mxCell>
        <mxCell id="75QqTKFgofHjlk_VrofV-134" value="&lt;font face=&quot;Times New Roman&quot;&gt;&lt;span style=&quot;font-size: 15px;&quot;&gt;Потроение&lt;/span&gt;&lt;/font&gt;" style="text;html=1;align=center;verticalAlign=middle;resizable=0;points=[];autosize=1;strokeColor=none;fillColor=none;" vertex="1" parent="1">
          <mxGeometry x="1760" y="720" width="90" height="30" as="geometry" />
        </mxCell>
        <mxCell id="75QqTKFgofHjlk_VrofV-135" value="&lt;font face=&quot;Times New Roman&quot;&gt;&lt;span style=&quot;font-size: 15px;&quot;&gt;График&lt;/span&gt;&lt;/font&gt;" style="text;html=1;align=center;verticalAlign=middle;resizable=0;points=[];autosize=1;strokeColor=none;fillColor=none;" vertex="1" parent="1">
          <mxGeometry x="1770" y="680" width="70" height="30" as="geometry" />
        </mxCell>
        <mxCell id="75QqTKFgofHjlk_VrofV-136" value="" style="endArrow=block;html=1;rounded=0;endFill=1;exitX=0.5;exitY=1;exitDx=0;exitDy=0;" edge="1" parent="1" target="75QqTKFgofHjlk_VrofV-108">
          <mxGeometry width="50" height="50" relative="1" as="geometry">
            <mxPoint x="1800.94" y="50" as="sourcePoint" />
            <mxPoint x="1946.88" y="222" as="targetPoint" />
          </mxGeometry>
        </mxCell>
        <mxCell id="75QqTKFgofHjlk_VrofV-137" value="" style="endArrow=block;html=1;rounded=0;endFill=1;exitX=0.5;exitY=1;exitDx=0;exitDy=0;entryX=0.5;entryY=0;entryDx=0;entryDy=0;" edge="1" parent="1" source="75QqTKFgofHjlk_VrofV-105" target="75QqTKFgofHjlk_VrofV-111">
          <mxGeometry width="50" height="50" relative="1" as="geometry">
            <mxPoint x="1900.94" y="230" as="sourcePoint" />
            <mxPoint x="1950.94" y="180" as="targetPoint" />
          </mxGeometry>
        </mxCell>
        <mxCell id="75QqTKFgofHjlk_VrofV-138" value="" style="endArrow=block;html=1;rounded=0;endFill=1;exitX=0.5;exitY=1;exitDx=0;exitDy=0;" edge="1" parent="1">
          <mxGeometry width="50" height="50" relative="1" as="geometry">
            <mxPoint x="1804.5" y="270" as="sourcePoint" />
            <mxPoint x="1804.5" y="290" as="targetPoint" />
          </mxGeometry>
        </mxCell>
        <mxCell id="75QqTKFgofHjlk_VrofV-139" value="" style="endArrow=block;html=1;rounded=0;endFill=1;exitX=0.5;exitY=1;exitDx=0;exitDy=0;" edge="1" parent="1">
          <mxGeometry width="50" height="50" relative="1" as="geometry">
            <mxPoint x="1804.5" y="390" as="sourcePoint" />
            <mxPoint x="1803.94" y="420" as="targetPoint" />
          </mxGeometry>
        </mxCell>
        <mxCell id="75QqTKFgofHjlk_VrofV-140" value="" style="endArrow=block;html=1;rounded=0;endFill=1;exitX=0.5;exitY=1;exitDx=0;exitDy=0;entryX=0.494;entryY=0.022;entryDx=0;entryDy=0;entryPerimeter=0;" edge="1" parent="1" target="75QqTKFgofHjlk_VrofV-131">
          <mxGeometry width="50" height="50" relative="1" as="geometry">
            <mxPoint x="1804.5" y="520" as="sourcePoint" />
            <mxPoint x="1804.5" y="540" as="targetPoint" />
          </mxGeometry>
        </mxCell>
        <mxCell id="75QqTKFgofHjlk_VrofV-141" value="" style="endArrow=block;html=1;rounded=0;endFill=1;exitX=0.5;exitY=1;exitDx=0;exitDy=0;" edge="1" parent="1">
          <mxGeometry width="50" height="50" relative="1" as="geometry">
            <mxPoint x="1804.5" y="650" as="sourcePoint" />
            <mxPoint x="1803.94" y="680" as="targetPoint" />
          </mxGeometry>
        </mxCell>
        <mxCell id="75QqTKFgofHjlk_VrofV-142" value="" style="endArrow=block;html=1;rounded=0;endFill=1;exitX=0.5;exitY=1;exitDx=0;exitDy=0;" edge="1" parent="1">
          <mxGeometry width="50" height="50" relative="1" as="geometry">
            <mxPoint x="1800.44" y="780" as="sourcePoint" />
            <mxPoint x="1800.44" y="800" as="targetPoint" />
          </mxGeometry>
        </mxCell>
        <mxCell id="75QqTKFgofHjlk_VrofV-143" value="" style="rounded=1;whiteSpace=wrap;html=1;" vertex="1" parent="1">
          <mxGeometry x="1710" y="890" width="181.88" height="100" as="geometry" />
        </mxCell>
        <mxCell id="75QqTKFgofHjlk_VrofV-144" value="" style="endArrow=none;html=1;rounded=0;exitX=0;exitY=0.25;exitDx=0;exitDy=0;entryX=1;entryY=0.25;entryDx=0;entryDy=0;" edge="1" parent="1" source="75QqTKFgofHjlk_VrofV-143" target="75QqTKFgofHjlk_VrofV-143">
          <mxGeometry width="50" height="50" relative="1" as="geometry">
            <mxPoint x="1826.88" y="880" as="sourcePoint" />
            <mxPoint x="1876.88" y="830" as="targetPoint" />
          </mxGeometry>
        </mxCell>
        <mxCell id="75QqTKFgofHjlk_VrofV-145" value="&lt;font face=&quot;Times New Roman&quot;&gt;&lt;span style=&quot;font-size: 15px;&quot;&gt;Отображение графика&amp;nbsp;&lt;/span&gt;&lt;/font&gt;&lt;div&gt;&lt;font face=&quot;Times New Roman&quot;&gt;&lt;span style=&quot;font-size: 15px;&quot;&gt;и&amp;nbsp;&lt;/span&gt;&lt;/font&gt;&lt;span style=&quot;font-size: 15px; font-family: &amp;quot;Times New Roman&amp;quot;; background-color: initial;&quot;&gt;сообщение&amp;nbsp;&lt;/span&gt;&lt;/div&gt;&lt;div&gt;&lt;span style=&quot;font-size: 15px; font-family: &amp;quot;Times New Roman&amp;quot;; background-color: initial;&quot;&gt;с макс. и мин. днями&lt;/span&gt;&lt;/div&gt;" style="text;html=1;align=center;verticalAlign=middle;resizable=0;points=[];autosize=1;strokeColor=none;fillColor=none;" vertex="1" parent="1">
          <mxGeometry x="1715.94" y="910" width="170" height="70" as="geometry" />
        </mxCell>
        <mxCell id="75QqTKFgofHjlk_VrofV-146" value="&lt;font face=&quot;Times New Roman&quot;&gt;&lt;span style=&quot;font-size: 15px;&quot;&gt;Интерфейс&lt;/span&gt;&lt;/font&gt;" style="text;html=1;align=center;verticalAlign=middle;resizable=0;points=[];autosize=1;strokeColor=none;fillColor=none;" vertex="1" parent="1">
          <mxGeometry x="1755.94" y="890" width="90" height="30" as="geometry" />
        </mxCell>
        <mxCell id="75QqTKFgofHjlk_VrofV-147" value="" style="endArrow=block;html=1;rounded=0;endFill=1;exitX=0.5;exitY=1;exitDx=0;exitDy=0;" edge="1" parent="1">
          <mxGeometry width="50" height="50" relative="1" as="geometry">
            <mxPoint x="1796.38" y="990" as="sourcePoint" />
            <mxPoint x="1796.38" y="1010" as="targetPoint" />
          </mxGeometry>
        </mxCell>
        <mxCell id="75QqTKFgofHjlk_VrofV-148" value="" style="endArrow=block;html=1;rounded=0;endFill=1;exitX=0.5;exitY=1;exitDx=0;exitDy=0;" edge="1" parent="1">
          <mxGeometry width="50" height="50" relative="1" as="geometry">
            <mxPoint x="1800.44" y="860" as="sourcePoint" />
            <mxPoint x="1800.94" y="890" as="targetPoint" />
          </mxGeometry>
        </mxCell>
        <mxCell id="75QqTKFgofHjlk_VrofV-149" value="" style="rounded=1;whiteSpace=wrap;html=1;" vertex="1" parent="1">
          <mxGeometry x="1710" y="1010" width="181.88" height="100" as="geometry" />
        </mxCell>
        <mxCell id="75QqTKFgofHjlk_VrofV-150" value="" style="endArrow=none;html=1;rounded=0;exitX=0;exitY=0.25;exitDx=0;exitDy=0;entryX=1;entryY=0.25;entryDx=0;entryDy=0;" edge="1" parent="1" source="75QqTKFgofHjlk_VrofV-149" target="75QqTKFgofHjlk_VrofV-149">
          <mxGeometry width="50" height="50" relative="1" as="geometry">
            <mxPoint x="1826.88" y="1000" as="sourcePoint" />
            <mxPoint x="1876.88" y="950" as="targetPoint" />
          </mxGeometry>
        </mxCell>
        <mxCell id="75QqTKFgofHjlk_VrofV-151" value="&lt;font face=&quot;Times New Roman&quot;&gt;&lt;span style=&quot;font-size: 15px;&quot;&gt;Главное окно&lt;/span&gt;&lt;/font&gt;" style="text;html=1;align=center;verticalAlign=middle;resizable=0;points=[];autosize=1;strokeColor=none;fillColor=none;" vertex="1" parent="1">
          <mxGeometry x="1745.94" y="1010" width="110" height="30" as="geometry" />
        </mxCell>
        <mxCell id="75QqTKFgofHjlk_VrofV-152" value="&lt;font face=&quot;Times New Roman&quot;&gt;&lt;span style=&quot;font-size: 15px;&quot;&gt;Ожидание новых действий&amp;nbsp;&lt;/span&gt;&lt;/font&gt;&lt;div&gt;&lt;font face=&quot;Times New Roman&quot;&gt;&lt;span style=&quot;font-size: 15px;&quot;&gt;от пользователя&lt;/span&gt;&lt;/font&gt;&lt;/div&gt;" style="text;html=1;align=center;verticalAlign=middle;resizable=0;points=[];autosize=1;strokeColor=none;fillColor=none;" vertex="1" parent="1">
          <mxGeometry x="1700.94" y="1050" width="200" height="50" as="geometry" />
        </mxCell>
        <mxCell id="75QqTKFgofHjlk_VrofV-154" value="" style="ellipse;html=1;shape=endState;fillColor=strokeColor;" vertex="1" parent="1">
          <mxGeometry x="1770" y="1130" width="55" height="50" as="geometry" />
        </mxCell>
        <mxCell id="75QqTKFgofHjlk_VrofV-155" value="" style="endArrow=block;html=1;rounded=0;endFill=1;exitX=0.5;exitY=1;exitDx=0;exitDy=0;" edge="1" parent="1">
          <mxGeometry width="50" height="50" relative="1" as="geometry">
            <mxPoint x="1797" y="1110" as="sourcePoint" />
            <mxPoint x="1797" y="1130" as="targetPoint" />
          </mxGeometry>
        </mxCell>
        <mxCell id="75QqTKFgofHjlk_VrofV-171" value="&lt;font style=&quot;font-size: 15px;&quot; face=&quot;Times New Roman&quot;&gt;&amp;nbsp; MainWindow&lt;/font&gt;" style="swimlane;whiteSpace=wrap;html=1;" vertex="1" parent="1">
          <mxGeometry x="840" y="1350" width="170" height="270" as="geometry" />
        </mxCell>
        <mxCell id="75QqTKFgofHjlk_VrofV-173" value="&lt;div style=&quot;text-align: justify;&quot;&gt;&lt;font style=&quot;font-size: 15px;&quot; face=&quot;Times New Roman&quot;&gt;- AttendanceData&lt;/font&gt;&lt;/div&gt;&lt;div style=&quot;text-align: justify;&quot;&gt;&lt;span style=&quot;background-color: initial;&quot;&gt;&lt;font style=&quot;font-size: 15px;&quot; face=&quot;Times New Roman&quot;&gt;- AttendanceTextBox&lt;/font&gt;&lt;/span&gt;&lt;/div&gt;&lt;div style=&quot;text-align: justify;&quot;&gt;&lt;span style=&quot;background-color: initial;&quot;&gt;&lt;font style=&quot;font-size: 15px;&quot; face=&quot;Times New Roman&quot;&gt;- InfoTextBlock&lt;/font&gt;&lt;/span&gt;&lt;/div&gt;&lt;div style=&quot;text-align: justify;&quot;&gt;&lt;span style=&quot;background-color: initial;&quot;&gt;&lt;font style=&quot;font-size: 15px;&quot; face=&quot;Times New Roman&quot;&gt;- MinMaxTextBlock&lt;/font&gt;&lt;/span&gt;&lt;/div&gt;&lt;div style=&quot;text-align: justify;&quot;&gt;&lt;span style=&quot;background-color: initial;&quot;&gt;&lt;font style=&quot;font-size: 15px;&quot; face=&quot;Times New Roman&quot;&gt;- AttendanceCanvas&lt;/font&gt;&lt;/span&gt;&lt;/div&gt;" style="text;html=1;align=center;verticalAlign=middle;resizable=0;points=[];autosize=1;strokeColor=none;fillColor=none;fontSize=13;" vertex="1" parent="75QqTKFgofHjlk_VrofV-171">
          <mxGeometry x="-4" y="30" width="150" height="100" as="geometry" />
        </mxCell>
        <mxCell id="75QqTKFgofHjlk_VrofV-174" value="&lt;div style=&quot;text-align: justify;&quot;&gt;&lt;font style=&quot;font-size: 15px;&quot; face=&quot;Times New Roman&quot;&gt;+ AddButton_Click()&lt;/font&gt;&lt;/div&gt;&lt;div style=&quot;text-align: justify;&quot;&gt;&lt;span style=&quot;background-color: initial;&quot;&gt;&lt;font style=&quot;font-size: 15px;&quot; face=&quot;Times New Roman&quot;&gt;+ ResetButton_Click()&lt;/font&gt;&lt;/span&gt;&lt;/div&gt;&lt;div style=&quot;text-align: justify;&quot;&gt;&lt;span style=&quot;background-color: initial;&quot;&gt;&lt;font style=&quot;font-size: 15px;&quot; face=&quot;Times New Roman&quot;&gt;+ ExitButton_Click()&lt;/font&gt;&lt;/span&gt;&lt;/div&gt;&lt;div style=&quot;text-align: justify;&quot;&gt;&lt;span style=&quot;background-color: initial;&quot;&gt;&lt;font style=&quot;font-size: 15px;&quot; face=&quot;Times New Roman&quot;&gt;+ AboutButton_Click()&lt;/font&gt;&lt;/span&gt;&lt;/div&gt;&lt;div style=&quot;text-align: justify;&quot;&gt;&lt;span style=&quot;background-color: initial;&quot;&gt;&lt;font style=&quot;font-size: 15px;&quot; face=&quot;Times New Roman&quot;&gt;+ DrawGraph()&lt;/font&gt;&lt;/span&gt;&lt;/div&gt;&lt;div style=&quot;text-align: justify;&quot;&gt;&lt;span style=&quot;background-color: initial;&quot;&gt;&lt;font style=&quot;font-size: 15px;&quot; face=&quot;Times New Roman&quot;&gt;+ UpdateInfoText()&lt;/font&gt;&lt;/span&gt;&lt;/div&gt;&lt;div style=&quot;text-align: justify;&quot;&gt;&lt;span style=&quot;background-color: initial;&quot;&gt;&lt;font style=&quot;font-size: 15px;&quot; face=&quot;Times New Roman&quot;&gt;+ UpdateMinMaxDays()&lt;/font&gt;&lt;/span&gt;&lt;/div&gt;" style="text;html=1;align=center;verticalAlign=middle;resizable=0;points=[];autosize=1;strokeColor=none;fillColor=none;" vertex="1" parent="75QqTKFgofHjlk_VrofV-171">
          <mxGeometry x="-4" y="130" width="170" height="140" as="geometry" />
        </mxCell>
        <mxCell id="75QqTKFgofHjlk_VrofV-172" value="" style="endArrow=none;html=1;rounded=0;exitX=0;exitY=0.5;exitDx=0;exitDy=0;entryX=1;entryY=0.5;entryDx=0;entryDy=0;" edge="1" parent="1" source="75QqTKFgofHjlk_VrofV-171" target="75QqTKFgofHjlk_VrofV-171">
          <mxGeometry width="50" height="50" relative="1" as="geometry">
            <mxPoint x="920" y="1470" as="sourcePoint" />
            <mxPoint x="970" y="1420" as="targetPoint" />
          </mxGeometry>
        </mxCell>
        <mxCell id="75QqTKFgofHjlk_VrofV-175" value="&lt;font face=&quot;Times New Roman&quot;&gt;&lt;span style=&quot;font-size: 15px;&quot;&gt;AttendanceData&lt;/span&gt;&lt;/font&gt;" style="swimlane;whiteSpace=wrap;html=1;" vertex="1" parent="1">
          <mxGeometry x="1100" y="1400" width="170" height="180" as="geometry" />
        </mxCell>
        <mxCell id="75QqTKFgofHjlk_VrofV-177" value="&lt;div style=&quot;text-align: justify;&quot;&gt;&lt;div&gt;&lt;font style=&quot;font-size: 15px;&quot; face=&quot;Times New Roman&quot;&gt;+ SetAttendance()&lt;/font&gt;&lt;/div&gt;&lt;div&gt;&lt;span style=&quot;font-size: 15px; font-family: &amp;quot;Times New Roman&amp;quot;; background-color: initial;&quot;&gt;+ GetAttendance()&lt;/span&gt;&lt;/div&gt;&lt;div&gt;&lt;span style=&quot;font-size: 15px; font-family: &amp;quot;Times New Roman&amp;quot;; background-color: initial;&quot;&gt;+ GetMinMaxDays()&lt;/span&gt;&lt;/div&gt;&lt;div&gt;&lt;span style=&quot;font-size: 15px; font-family: &amp;quot;Times New Roman&amp;quot;; background-color: initial;&quot;&gt;+ GetAttendanceList()&lt;/span&gt;&lt;/div&gt;&lt;/div&gt;" style="text;html=1;align=center;verticalAlign=middle;resizable=0;points=[];autosize=1;strokeColor=none;fillColor=none;" vertex="1" parent="75QqTKFgofHjlk_VrofV-175">
          <mxGeometry y="90" width="160" height="90" as="geometry" />
        </mxCell>
        <mxCell id="75QqTKFgofHjlk_VrofV-176" value="&lt;div style=&quot;text-align: justify;&quot;&gt;&lt;font face=&quot;Times New Roman&quot;&gt;&lt;span style=&quot;font-size: 15px;&quot;&gt;- attendanceList&lt;/span&gt;&lt;/font&gt;&lt;br&gt;&lt;/div&gt;" style="text;html=1;align=center;verticalAlign=middle;resizable=0;points=[];autosize=1;strokeColor=none;fillColor=none;fontSize=13;" vertex="1" parent="75QqTKFgofHjlk_VrofV-175">
          <mxGeometry y="40" width="120" height="30" as="geometry" />
        </mxCell>
        <mxCell id="75QqTKFgofHjlk_VrofV-178" value="" style="endArrow=none;html=1;rounded=0;exitX=0;exitY=0.5;exitDx=0;exitDy=0;entryX=1;entryY=0.5;entryDx=0;entryDy=0;" edge="1" parent="1" source="75QqTKFgofHjlk_VrofV-175" target="75QqTKFgofHjlk_VrofV-175">
          <mxGeometry width="50" height="50" relative="1" as="geometry">
            <mxPoint x="1250" y="1690" as="sourcePoint" />
            <mxPoint x="1300" y="1640" as="targetPoint" />
          </mxGeometry>
        </mxCell>
        <mxCell id="75QqTKFgofHjlk_VrofV-180" value="" style="endArrow=diamondThin;html=1;rounded=0;endFill=0;startSize=7;sourcePerimeterSpacing=1;targetPerimeterSpacing=1;endSize=7;exitX=1;exitY=0.75;exitDx=0;exitDy=0;entryX=-0.022;entryY=0.244;entryDx=0;entryDy=0;entryPerimeter=0;" edge="1" parent="1" source="75QqTKFgofHjlk_VrofV-171" target="75QqTKFgofHjlk_VrofV-176">
          <mxGeometry width="50" height="50" relative="1" as="geometry">
            <mxPoint x="1118" y="1270" as="sourcePoint" />
            <mxPoint x="1168" y="1220" as="targetPoint" />
            <Array as="points">
              <mxPoint x="1040" y="1553" />
              <mxPoint x="1040" y="1447" />
            </Array>
          </mxGeometry>
        </mxCell>
        <mxCell id="75QqTKFgofHjlk_VrofV-181" value="" style="rounded=0;whiteSpace=wrap;html=1;" vertex="1" parent="1">
          <mxGeometry x="1316" y="1370" width="727.5" height="240" as="geometry" />
        </mxCell>
        <mxCell id="75QqTKFgofHjlk_VrofV-182" value="" style="rounded=0;whiteSpace=wrap;html=1;" vertex="1" parent="1">
          <mxGeometry x="1316" y="1330" width="227.5" height="40" as="geometry" />
        </mxCell>
        <mxCell id="75QqTKFgofHjlk_VrofV-183" value="&lt;font style=&quot;font-size: 15px;&quot; face=&quot;Times New Roman&quot;&gt;Программма &quot;&lt;/font&gt;&lt;font face=&quot;Times New Roman&quot;&gt;&lt;span style=&quot;font-size: 15px;&quot;&gt;Attendance App&quot;&lt;/span&gt;&lt;/font&gt;" style="text;html=1;align=center;verticalAlign=middle;resizable=0;points=[];autosize=1;strokeColor=none;fillColor=none;" vertex="1" parent="1">
          <mxGeometry x="1316" y="1335" width="220" height="30" as="geometry" />
        </mxCell>
        <mxCell id="75QqTKFgofHjlk_VrofV-184" value="&lt;font style=&quot;font-size: 15px;&quot; face=&quot;Times New Roman&quot;&gt;«Аппаратное обеспечение»&lt;br&gt;&lt;b&gt;Компьютер&lt;/b&gt;&lt;/font&gt;" style="html=1;dropTarget=0;whiteSpace=wrap;" vertex="1" parent="1">
          <mxGeometry x="1336" y="1445" width="180" height="90" as="geometry" />
        </mxCell>
        <mxCell id="75QqTKFgofHjlk_VrofV-185" value="" style="shape=module;jettyWidth=8;jettyHeight=4;" vertex="1" parent="75QqTKFgofHjlk_VrofV-184">
          <mxGeometry x="1" width="20" height="20" relative="1" as="geometry">
            <mxPoint x="-27" y="7" as="offset" />
          </mxGeometry>
        </mxCell>
        <mxCell id="75QqTKFgofHjlk_VrofV-186" value="&lt;font style=&quot;font-size: 15px;&quot; face=&quot;Times New Roman&quot;&gt;«Пограммное обеспечение»&lt;br&gt;&lt;b&gt;Программа&lt;/b&gt;&lt;/font&gt;" style="html=1;dropTarget=0;whiteSpace=wrap;" vertex="1" parent="1">
          <mxGeometry x="1589.5" y="1445" width="180" height="90" as="geometry" />
        </mxCell>
        <mxCell id="75QqTKFgofHjlk_VrofV-187" value="" style="shape=module;jettyWidth=8;jettyHeight=4;" vertex="1" parent="75QqTKFgofHjlk_VrofV-186">
          <mxGeometry x="1" width="20" height="20" relative="1" as="geometry">
            <mxPoint x="-27" y="7" as="offset" />
          </mxGeometry>
        </mxCell>
        <mxCell id="75QqTKFgofHjlk_VrofV-188" value="&lt;font style=&quot;font-size: 15px;&quot; face=&quot;Times New Roman&quot;&gt;«Программное обеспечение»&lt;br&gt;&lt;b&gt;Интерфейс&lt;/b&gt;&lt;/font&gt;" style="html=1;dropTarget=0;whiteSpace=wrap;" vertex="1" parent="1">
          <mxGeometry x="1844.44" y="1445" width="180" height="90" as="geometry" />
        </mxCell>
        <mxCell id="75QqTKFgofHjlk_VrofV-189" value="" style="shape=module;jettyWidth=8;jettyHeight=4;" vertex="1" parent="75QqTKFgofHjlk_VrofV-188">
          <mxGeometry x="1" width="20" height="20" relative="1" as="geometry">
            <mxPoint x="-27" y="7" as="offset" />
          </mxGeometry>
        </mxCell>
        <mxCell id="75QqTKFgofHjlk_VrofV-190" value="" style="html=1;rounded=0;strokeColor=#000000;fillColor=#000000;" vertex="1" parent="1">
          <mxGeometry x="1499.5" y="1500" width="30" height="30" as="geometry" />
        </mxCell>
        <mxCell id="75QqTKFgofHjlk_VrofV-191" value="" style="endArrow=none;html=1;rounded=0;align=center;verticalAlign=top;endFill=0;labelBackgroundColor=none;endSize=2;strokeColor=#000000;" edge="1" source="75QqTKFgofHjlk_VrofV-190" target="75QqTKFgofHjlk_VrofV-192" parent="1">
          <mxGeometry relative="1" as="geometry" />
        </mxCell>
        <mxCell id="75QqTKFgofHjlk_VrofV-192" value="" style="ellipse;html=1;fontSize=11;align=center;fillColor=#000000;points=[];aspect=fixed;resizable=0;verticalAlign=bottom;labelPosition=center;verticalLabelPosition=top;flipH=1;strokeColor=#000000;" vertex="1" parent="1">
          <mxGeometry x="1543.5" y="1511" width="8" height="8" as="geometry" />
        </mxCell>
        <mxCell id="75QqTKFgofHjlk_VrofV-196" value="" style="html=1;rounded=0;fillColor=#000000;" vertex="1" parent="1">
          <mxGeometry x="1579" y="1500" width="30" height="30" as="geometry" />
        </mxCell>
        <mxCell id="75QqTKFgofHjlk_VrofV-197" value="" style="endArrow=none;html=1;rounded=0;align=center;verticalAlign=top;endFill=0;labelBackgroundColor=none;endSize=2;" edge="1" source="75QqTKFgofHjlk_VrofV-196" target="75QqTKFgofHjlk_VrofV-198" parent="1">
          <mxGeometry relative="1" as="geometry" />
        </mxCell>
        <mxCell id="75QqTKFgofHjlk_VrofV-198" value="" style="shape=requiredInterface;html=1;fontSize=11;align=center;fillColor=none;points=[];aspect=fixed;resizable=0;verticalAlign=bottom;labelPosition=center;verticalLabelPosition=top;flipH=1;rotation=-180;" vertex="1" parent="1">
          <mxGeometry x="1551.5" y="1510" width="5" height="10" as="geometry" />
        </mxCell>
        <mxCell id="75QqTKFgofHjlk_VrofV-199" value="" style="html=1;rounded=0;strokeColor=#000000;fillColor=#000000;" vertex="1" parent="1">
          <mxGeometry x="1754.5" y="1500" width="30" height="30" as="geometry" />
        </mxCell>
        <mxCell id="75QqTKFgofHjlk_VrofV-200" value="" style="endArrow=none;html=1;rounded=0;align=center;verticalAlign=top;endFill=0;labelBackgroundColor=none;endSize=2;strokeColor=#000000;" edge="1" parent="1" source="75QqTKFgofHjlk_VrofV-199" target="75QqTKFgofHjlk_VrofV-201">
          <mxGeometry relative="1" as="geometry" />
        </mxCell>
        <mxCell id="75QqTKFgofHjlk_VrofV-201" value="" style="ellipse;html=1;fontSize=11;align=center;fillColor=#000000;points=[];aspect=fixed;resizable=0;verticalAlign=bottom;labelPosition=center;verticalLabelPosition=top;flipH=1;strokeColor=#000000;" vertex="1" parent="1">
          <mxGeometry x="1798.5" y="1511" width="8" height="8" as="geometry" />
        </mxCell>
        <mxCell id="75QqTKFgofHjlk_VrofV-202" value="" style="html=1;rounded=0;fillColor=#000000;" vertex="1" parent="1">
          <mxGeometry x="1834" y="1500" width="30" height="30" as="geometry" />
        </mxCell>
        <mxCell id="75QqTKFgofHjlk_VrofV-203" value="" style="endArrow=none;html=1;rounded=0;align=center;verticalAlign=top;endFill=0;labelBackgroundColor=none;endSize=2;" edge="1" parent="1" source="75QqTKFgofHjlk_VrofV-202" target="75QqTKFgofHjlk_VrofV-204">
          <mxGeometry relative="1" as="geometry" />
        </mxCell>
        <mxCell id="75QqTKFgofHjlk_VrofV-204" value="" style="shape=requiredInterface;html=1;fontSize=11;align=center;fillColor=none;points=[];aspect=fixed;resizable=0;verticalAlign=bottom;labelPosition=center;verticalLabelPosition=top;flipH=1;rotation=-180;" vertex="1" parent="1">
          <mxGeometry x="1806.5" y="1510" width="5" height="10" as="geometry" />
        </mxCell>
        <mxCell id="75QqTKFgofHjlk_VrofV-205" value="&lt;font style=&quot;font-size: 15px;&quot; face=&quot;Times New Roman&quot;&gt;Пользователь&lt;/font&gt;" style="shape=umlActor;verticalLabelPosition=bottom;verticalAlign=top;html=1;outlineConnect=0;" vertex="1" parent="1">
          <mxGeometry x="20" y="1730" width="70" height="100" as="geometry" />
        </mxCell>
        <mxCell id="75QqTKFgofHjlk_VrofV-206" value="&lt;font style=&quot;font-size: 15px;&quot; face=&quot;Times New Roman&quot;&gt;Интерфейс&lt;/font&gt;" style="rounded=0;whiteSpace=wrap;html=1;strokeWidth=1;" vertex="1" parent="1">
          <mxGeometry x="272.5" y="1750" width="150" height="60" as="geometry" />
        </mxCell>
        <mxCell id="75QqTKFgofHjlk_VrofV-207" value="" style="endArrow=none;html=1;rounded=0;exitX=0;exitY=0.5;exitDx=0;exitDy=0;" edge="1" parent="1" source="75QqTKFgofHjlk_VrofV-206" target="75QqTKFgofHjlk_VrofV-205">
          <mxGeometry width="50" height="50" relative="1" as="geometry">
            <mxPoint x="222.5" y="1760" as="sourcePoint" />
            <mxPoint x="272.5" y="1710" as="targetPoint" />
          </mxGeometry>
        </mxCell>
        <mxCell id="75QqTKFgofHjlk_VrofV-209" value="" style="endArrow=open;html=1;rounded=0;endFill=0;" edge="1" parent="1">
          <mxGeometry width="50" height="50" relative="1" as="geometry">
            <mxPoint x="92.5" y="1750" as="sourcePoint" />
            <mxPoint x="252.5" y="1750" as="targetPoint" />
          </mxGeometry>
        </mxCell>
        <mxCell id="75QqTKFgofHjlk_VrofV-210" value="&lt;font style=&quot;font-size: 15px;&quot; face=&quot;Times New Roman&quot;&gt;1. Вводит ванные до&amp;nbsp;&lt;/font&gt;&lt;div&gt;&lt;font style=&quot;font-size: 15px;&quot; face=&quot;Times New Roman&quot;&gt;нужного количества дней&lt;/font&gt;&lt;/div&gt;" style="text;html=1;align=center;verticalAlign=middle;resizable=0;points=[];autosize=1;strokeColor=none;fillColor=none;" vertex="1" parent="1">
          <mxGeometry x="72.5" y="1690" width="190" height="50" as="geometry" />
        </mxCell>
        <mxCell id="75QqTKFgofHjlk_VrofV-211" value="&lt;font style=&quot;font-size: 15px;&quot; face=&quot;Times New Roman&quot;&gt;8. Готовый график и&lt;/font&gt;&lt;div&gt;&lt;font style=&quot;font-size: 15px;&quot; face=&quot;Times New Roman&quot;&gt;&amp;nbsp;сообщение&amp;nbsp;&lt;/font&gt;&lt;/div&gt;&lt;div&gt;&lt;font style=&quot;font-size: 15px;&quot; face=&quot;Times New Roman&quot;&gt;о макс. и мин. днях&lt;/font&gt;&lt;/div&gt;" style="text;html=1;align=center;verticalAlign=middle;resizable=0;points=[];autosize=1;strokeColor=none;fillColor=none;" vertex="1" parent="1">
          <mxGeometry x="117.5" y="1810" width="150" height="70" as="geometry" />
        </mxCell>
        <mxCell id="75QqTKFgofHjlk_VrofV-212" value="" style="endArrow=open;html=1;rounded=0;endFill=0;" edge="1" parent="1">
          <mxGeometry width="50" height="50" relative="1" as="geometry">
            <mxPoint x="252.5" y="1810" as="sourcePoint" />
            <mxPoint x="92.5" y="1810" as="targetPoint" />
          </mxGeometry>
        </mxCell>
        <mxCell id="75QqTKFgofHjlk_VrofV-213" value="&lt;font style=&quot;font-size: 15px;&quot; face=&quot;Times New Roman&quot;&gt;Класс&lt;/font&gt;" style="rounded=0;whiteSpace=wrap;html=1;" vertex="1" parent="1">
          <mxGeometry x="516" y="1750" width="120" height="60" as="geometry" />
        </mxCell>
        <mxCell id="75QqTKFgofHjlk_VrofV-214" value="" style="endArrow=none;html=1;rounded=0;exitX=0;exitY=0.5;exitDx=0;exitDy=0;entryX=1;entryY=0.5;entryDx=0;entryDy=0;" edge="1" parent="1" source="75QqTKFgofHjlk_VrofV-213" target="75QqTKFgofHjlk_VrofV-206">
          <mxGeometry width="50" height="50" relative="1" as="geometry">
            <mxPoint x="512.5" y="1750" as="sourcePoint" />
            <mxPoint x="562.5" y="1700" as="targetPoint" />
          </mxGeometry>
        </mxCell>
        <mxCell id="75QqTKFgofHjlk_VrofV-215" value="&lt;font style=&quot;font-size: 15px;&quot; face=&quot;Times New Roman&quot;&gt;2. Делает запрос о&amp;nbsp;&lt;/font&gt;&lt;div&gt;&lt;font style=&quot;font-size: 15px;&quot; face=&quot;Times New Roman&quot;&gt;фиксированых&amp;nbsp;&lt;/font&gt;&lt;/div&gt;&lt;div&gt;&lt;font style=&quot;font-size: 15px;&quot; face=&quot;Times New Roman&quot;&gt;данных&lt;/font&gt;&lt;/div&gt;" style="text;html=1;align=center;verticalAlign=middle;resizable=0;points=[];autosize=1;strokeColor=none;fillColor=none;" vertex="1" parent="1">
          <mxGeometry x="402.5" y="1680" width="140" height="70" as="geometry" />
        </mxCell>
        <mxCell id="75QqTKFgofHjlk_VrofV-216" value="" style="endArrow=open;html=1;rounded=0;endFill=0;" edge="1" parent="1">
          <mxGeometry width="50" height="50" relative="1" as="geometry">
            <mxPoint x="432.5" y="1750" as="sourcePoint" />
            <mxPoint x="505.5" y="1749" as="targetPoint" />
          </mxGeometry>
        </mxCell>
        <mxCell id="75QqTKFgofHjlk_VrofV-217" value="" style="endArrow=open;html=1;rounded=0;endFill=0;" edge="1" parent="1">
          <mxGeometry width="50" height="50" relative="1" as="geometry">
            <mxPoint x="502.5" y="1810" as="sourcePoint" />
            <mxPoint x="432.5" y="1810" as="targetPoint" />
          </mxGeometry>
        </mxCell>
        <mxCell id="75QqTKFgofHjlk_VrofV-218" value="&lt;font style=&quot;font-size: 15px;&quot; face=&quot;Times New Roman&quot;&gt;7. Готовые и&amp;nbsp;&lt;/font&gt;&lt;div&gt;&lt;font style=&quot;font-size: 15px;&quot; face=&quot;Times New Roman&quot;&gt;выведеные данные&lt;/font&gt;&lt;/div&gt;" style="text;html=1;align=center;verticalAlign=middle;resizable=0;points=[];autosize=1;strokeColor=none;fillColor=none;" vertex="1" parent="1">
          <mxGeometry x="402.5" y="1810" width="140" height="50" as="geometry" />
        </mxCell>
        <mxCell id="75QqTKFgofHjlk_VrofV-219" value="&lt;font style=&quot;font-size: 15px;&quot; face=&quot;Times New Roman&quot;&gt;Ситема обработки&lt;/font&gt;" style="rounded=0;whiteSpace=wrap;html=1;" vertex="1" parent="1">
          <mxGeometry x="727" y="1750" width="120" height="60" as="geometry" />
        </mxCell>
        <mxCell id="75QqTKFgofHjlk_VrofV-220" value="" style="endArrow=none;html=1;rounded=0;entryX=0;entryY=0.5;entryDx=0;entryDy=0;exitX=1;exitY=0.5;exitDx=0;exitDy=0;" edge="1" parent="1" source="75QqTKFgofHjlk_VrofV-213" target="75QqTKFgofHjlk_VrofV-219">
          <mxGeometry width="50" height="50" relative="1" as="geometry">
            <mxPoint x="512.5" y="1750" as="sourcePoint" />
            <mxPoint x="562.5" y="1700" as="targetPoint" />
          </mxGeometry>
        </mxCell>
        <mxCell id="75QqTKFgofHjlk_VrofV-221" value="&lt;font style=&quot;font-size: 15px;&quot; face=&quot;Times New Roman&quot;&gt;3. Расчет&amp;nbsp;&lt;/font&gt;&lt;div&gt;&lt;font style=&quot;font-size: 15px;&quot; face=&quot;Times New Roman&quot;&gt;необходимых&amp;nbsp;&lt;/font&gt;&lt;/div&gt;&lt;div&gt;&lt;font style=&quot;font-size: 15px;&quot; face=&quot;Times New Roman&quot;&gt;данных&lt;/font&gt;&lt;/div&gt;" style="text;html=1;align=center;verticalAlign=middle;resizable=0;points=[];autosize=1;strokeColor=none;fillColor=none;" vertex="1" parent="1">
          <mxGeometry x="628.5" y="1680" width="110" height="70" as="geometry" />
        </mxCell>
        <mxCell id="75QqTKFgofHjlk_VrofV-222" value="" style="endArrow=open;html=1;rounded=0;endFill=0;" edge="1" parent="1">
          <mxGeometry width="50" height="50" relative="1" as="geometry">
            <mxPoint x="648.5" y="1750" as="sourcePoint" />
            <mxPoint x="718.5" y="1750" as="targetPoint" />
          </mxGeometry>
        </mxCell>
        <mxCell id="75QqTKFgofHjlk_VrofV-223" value="&lt;font style=&quot;font-size: 15px;&quot; face=&quot;Times New Roman&quot;&gt;6. Данные&amp;nbsp;&lt;/font&gt;&lt;div&gt;&lt;font style=&quot;font-size: 15px;&quot; face=&quot;Times New Roman&quot;&gt;от графика&lt;/font&gt;&lt;/div&gt;" style="text;html=1;align=center;verticalAlign=middle;resizable=0;points=[];autosize=1;strokeColor=none;fillColor=none;" vertex="1" parent="1">
          <mxGeometry x="641.5" y="1820" width="90" height="50" as="geometry" />
        </mxCell>
        <mxCell id="75QqTKFgofHjlk_VrofV-224" value="" style="endArrow=open;html=1;rounded=0;endFill=0;" edge="1" parent="1">
          <mxGeometry width="50" height="50" relative="1" as="geometry">
            <mxPoint x="718.5" y="1810" as="sourcePoint" />
            <mxPoint x="648.5" y="1810" as="targetPoint" />
          </mxGeometry>
        </mxCell>
        <mxCell id="75QqTKFgofHjlk_VrofV-225" value="&lt;font style=&quot;font-size: 15px;&quot; face=&quot;Times New Roman&quot;&gt;Ситема визуализации&lt;/font&gt;" style="rounded=0;whiteSpace=wrap;html=1;" vertex="1" parent="1">
          <mxGeometry x="932.5" y="1750" width="120" height="60" as="geometry" />
        </mxCell>
        <mxCell id="75QqTKFgofHjlk_VrofV-227" value="" style="endArrow=none;html=1;rounded=0;entryX=0;entryY=0.5;entryDx=0;entryDy=0;exitX=1;exitY=0.5;exitDx=0;exitDy=0;" edge="1" parent="1" source="75QqTKFgofHjlk_VrofV-219" target="75QqTKFgofHjlk_VrofV-225">
          <mxGeometry width="50" height="50" relative="1" as="geometry">
            <mxPoint x="512.5" y="1750" as="sourcePoint" />
            <mxPoint x="562.5" y="1700" as="targetPoint" />
          </mxGeometry>
        </mxCell>
        <mxCell id="75QqTKFgofHjlk_VrofV-228" value="&lt;font style=&quot;font-size: 15px;&quot; face=&quot;Times New Roman&quot;&gt;4. Направление&lt;/font&gt;&lt;div&gt;&lt;font style=&quot;font-size: 15px;&quot; face=&quot;Times New Roman&quot;&gt;&amp;nbsp;данных&lt;/font&gt;&lt;/div&gt;" style="text;html=1;align=center;verticalAlign=middle;resizable=0;points=[];autosize=1;strokeColor=none;fillColor=none;" vertex="1" parent="1">
          <mxGeometry x="830" y="1690" width="120" height="50" as="geometry" />
        </mxCell>
        <mxCell id="75QqTKFgofHjlk_VrofV-229" value="" style="endArrow=open;html=1;rounded=0;endFill=0;" edge="1" parent="1">
          <mxGeometry width="50" height="50" relative="1" as="geometry">
            <mxPoint x="855" y="1750" as="sourcePoint" />
            <mxPoint x="925" y="1750" as="targetPoint" />
          </mxGeometry>
        </mxCell>
        <mxCell id="75QqTKFgofHjlk_VrofV-230" value="&lt;font style=&quot;font-size: 15px;&quot; face=&quot;Times New Roman&quot;&gt;5. График на&amp;nbsp;&lt;/font&gt;&lt;div&gt;&lt;font style=&quot;font-size: 15px;&quot; face=&quot;Times New Roman&quot;&gt;основе&amp;nbsp;&lt;/font&gt;&lt;/div&gt;&lt;div&gt;&lt;font style=&quot;font-size: 15px;&quot; face=&quot;Times New Roman&quot;&gt;данных&lt;/font&gt;&lt;/div&gt;" style="text;html=1;align=center;verticalAlign=middle;resizable=0;points=[];autosize=1;strokeColor=none;fillColor=none;" vertex="1" parent="1">
          <mxGeometry x="840" y="1810" width="110" height="70" as="geometry" />
        </mxCell>
        <mxCell id="75QqTKFgofHjlk_VrofV-231" value="" style="endArrow=open;html=1;rounded=0;endFill=0;" edge="1" parent="1">
          <mxGeometry width="50" height="50" relative="1" as="geometry">
            <mxPoint x="925" y="1810" as="sourcePoint" />
            <mxPoint x="855" y="1810" as="targetPoint" />
          </mxGeometry>
        </mxCell>
        <mxCell id="75QqTKFgofHjlk_VrofV-233" value="&lt;font style=&quot;font-size: 15px;&quot; face=&quot;Times New Roman&quot;&gt;Интерфейс&lt;/font&gt;" style="verticalAlign=top;align=left;spacingTop=8;spacingLeft=2;spacingRight=12;shape=cube;size=10;direction=south;fontStyle=4;html=1;whiteSpace=wrap;" vertex="1" parent="1">
          <mxGeometry x="1095" y="1640" width="140" height="100" as="geometry" />
        </mxCell>
        <mxCell id="75QqTKFgofHjlk_VrofV-234" value="&lt;font style=&quot;font-size: 15px;&quot; face=&quot;Times New Roman&quot;&gt;Программа&lt;/font&gt;" style="verticalAlign=top;align=left;spacingTop=8;spacingLeft=2;spacingRight=12;shape=cube;size=10;direction=south;fontStyle=4;html=1;whiteSpace=wrap;" vertex="1" parent="1">
          <mxGeometry x="1345" y="1640" width="140" height="100" as="geometry" />
        </mxCell>
        <mxCell id="75QqTKFgofHjlk_VrofV-235" value="&lt;font style=&quot;font-size: 15px;&quot; face=&quot;Times New Roman&quot;&gt;Устройство&lt;/font&gt;" style="verticalAlign=top;align=left;spacingTop=8;spacingLeft=2;spacingRight=12;shape=cube;size=10;direction=south;fontStyle=4;html=1;whiteSpace=wrap;" vertex="1" parent="1">
          <mxGeometry x="1095" y="1800" width="140" height="100" as="geometry" />
        </mxCell>
        <mxCell id="75QqTKFgofHjlk_VrofV-236" value="&lt;font style=&quot;font-size: 15px;&quot; face=&quot;Times New Roman&quot;&gt;Microsoft Visual Studio&lt;/font&gt;" style="verticalAlign=top;align=left;spacingTop=8;spacingLeft=2;spacingRight=12;shape=cube;size=10;direction=south;fontStyle=4;html=1;whiteSpace=wrap;" vertex="1" parent="1">
          <mxGeometry x="1345" y="1800" width="140" height="100" as="geometry" />
        </mxCell>
        <mxCell id="75QqTKFgofHjlk_VrofV-237" value="" style="endArrow=none;html=1;rounded=0;exitX=0;exitY=0;exitDx=45;exitDy=0;exitPerimeter=0;entryX=0.447;entryY=0.995;entryDx=0;entryDy=0;entryPerimeter=0;" edge="1" parent="1" source="75QqTKFgofHjlk_VrofV-233" target="75QqTKFgofHjlk_VrofV-234">
          <mxGeometry width="50" height="50" relative="1" as="geometry">
            <mxPoint x="1155" y="1720" as="sourcePoint" />
            <mxPoint x="1205" y="1670" as="targetPoint" />
          </mxGeometry>
        </mxCell>
        <mxCell id="75QqTKFgofHjlk_VrofV-238" value="" style="endArrow=none;html=1;rounded=0;exitX=0;exitY=0;exitDx=0;exitDy=65;exitPerimeter=0;entryX=0.996;entryY=0.466;entryDx=0;entryDy=0;entryPerimeter=0;" edge="1" parent="1" source="75QqTKFgofHjlk_VrofV-236" target="75QqTKFgofHjlk_VrofV-234">
          <mxGeometry width="50" height="50" relative="1" as="geometry">
            <mxPoint x="1155" y="1720" as="sourcePoint" />
            <mxPoint x="1419" y="1737" as="targetPoint" />
          </mxGeometry>
        </mxCell>
        <mxCell id="75QqTKFgofHjlk_VrofV-239" value="" style="endArrow=none;html=1;rounded=0;dashed=1;exitX=0;exitY=0;exitDx=55;exitDy=140;exitPerimeter=0;entryX=0.55;entryY=0.071;entryDx=0;entryDy=0;entryPerimeter=0;" edge="1" parent="1">
          <mxGeometry width="50" height="50" relative="1" as="geometry">
            <mxPoint x="1095" y="1840" as="sourcePoint" />
            <mxPoint x="1225.06" y="1840" as="targetPoint" />
          </mxGeometry>
        </mxCell>
        <mxCell id="75QqTKFgofHjlk_VrofV-240" value="" style="endArrow=openThin;html=1;rounded=0;endFill=0;dashed=1;exitX=0.018;exitY=0.511;exitDx=0;exitDy=0;exitPerimeter=0;" edge="1" parent="1" source="75QqTKFgofHjlk_VrofV-235">
          <mxGeometry width="50" height="50" relative="1" as="geometry">
            <mxPoint x="1155" y="1720" as="sourcePoint" />
            <mxPoint x="1163" y="1740" as="targetPoint" />
          </mxGeometry>
        </mxCell>
        <mxCell id="75QqTKFgofHjlk_VrofV-241" value="&lt;font style=&quot;font-size: 15px;&quot; face=&quot;Times New Roman&quot;&gt;Исп.&lt;/font&gt;" style="text;html=1;align=center;verticalAlign=middle;resizable=0;points=[];autosize=1;strokeColor=none;fillColor=none;" vertex="1" parent="1">
          <mxGeometry x="1105" y="1760" width="50" height="30" as="geometry" />
        </mxCell>
        <object placeholders="1" c4Name="Журина А.А." c4Type="Разработчк" c4Description="Создание программы" label="&lt;font&gt;&lt;b&gt;%c4Name%&lt;/b&gt;&lt;/font&gt;&lt;div&gt;[%c4Type%]&lt;/div&gt;&lt;br&gt;&lt;div&gt;&lt;font&gt;&lt;font color=&quot;#cccccc&quot;&gt;%c4Description%&lt;/font&gt;&lt;/font&gt;&lt;/div&gt;" id="75QqTKFgofHjlk_VrofV-242">
          <mxCell style="html=1;fontSize=15;dashed=0;whiteSpace=wrap;fillColor=#083F75;strokeColor=#06315C;fontColor=#ffffff;shape=mxgraph.c4.person2;align=center;metaEdit=1;points=[[0.5,0,0],[1,0.5,0],[1,0.75,0],[0.75,1,0],[0.5,1,0],[0.25,1,0],[0,0.75,0],[0,0.5,0]];resizable=0;fontFamily=Times New Roman;" vertex="1" parent="1">
            <mxGeometry x="-3.75" y="1950" width="200" height="180" as="geometry" />
          </mxCell>
        </object>
        <object placeholders="1" c4Name="График посещаемости" c4Type="Windows" c4Description="Построение графика посещаемости" label="&lt;font&gt;&lt;b&gt;%c4Name%&lt;/b&gt;&lt;/font&gt;&lt;div&gt;[%c4Type%]&lt;/div&gt;&lt;br&gt;&lt;div&gt;&lt;font&gt;&lt;font color=&quot;#cccccc&quot;&gt;%c4Description%&lt;/font&gt;&lt;/font&gt;&lt;/div&gt;" link="data:page/id,besKALpzMOtKuctZdCvx" id="75QqTKFgofHjlk_VrofV-243">
          <mxCell style="rounded=1;whiteSpace=wrap;html=1;labelBackgroundColor=none;fillColor=#1061B0;fontColor=#ffffff;align=center;arcSize=10;strokeColor=#0D5091;metaEdit=1;resizable=0;points=[[0.25,0,0],[0.5,0,0],[0.75,0,0],[1,0.25,0],[1,0.5,0],[1,0.75,0],[0.75,1,0],[0.5,1,0],[0.25,1,0],[0,0.75,0],[0,0.5,0],[0,0.25,0]];fontFamily=Times New Roman;fontSize=15;" vertex="1" parent="1">
            <mxGeometry x="-23.75" y="2180" width="240" height="120" as="geometry" />
          </mxCell>
        </object>
        <mxCell id="75QqTKFgofHjlk_VrofV-244" value="" style="endArrow=open;html=1;rounded=0;endFill=0;exitX=0.5;exitY=1;exitDx=0;exitDy=0;exitPerimeter=0;entryX=0.5;entryY=0;entryDx=0;entryDy=0;entryPerimeter=0;" edge="1" parent="1" source="75QqTKFgofHjlk_VrofV-242" target="75QqTKFgofHjlk_VrofV-243">
          <mxGeometry width="50" height="50" relative="1" as="geometry">
            <mxPoint x="74.75" y="2230" as="sourcePoint" />
            <mxPoint x="124.75" y="2180" as="targetPoint" />
          </mxGeometry>
        </mxCell>
      </root>
    </mxGraphModel>
  </diagram>
  <diagram id="besKALpzMOtKuctZdCvx" name="Диограмма контейнеров">
    <mxGraphModel dx="954" dy="725" grid="1" gridSize="10" guides="1" tooltips="1" connect="1" arrows="1" fold="1" page="1" pageScale="1" pageWidth="827" pageHeight="1169" math="0" shadow="0">
      <root>
        <mxCell id="0" />
        <mxCell id="1" parent="0" />
        <object placeholders="1" c4Name="Журина А.А." c4Type="Разработчк" c4Description="Создание программы" label="&lt;font&gt;&lt;b&gt;%c4Name%&lt;/b&gt;&lt;/font&gt;&lt;div&gt;[%c4Type%]&lt;/div&gt;&lt;br&gt;&lt;div&gt;&lt;font&gt;&lt;font color=&quot;#cccccc&quot;&gt;%c4Description%&lt;/font&gt;&lt;/font&gt;&lt;/div&gt;" id="MvrlqP20jybD7iesCiWr-1">
          <mxCell style="html=1;fontSize=15;dashed=0;whiteSpace=wrap;fillColor=#083F75;strokeColor=#06315C;fontColor=#ffffff;shape=mxgraph.c4.person2;align=center;metaEdit=1;points=[[0.5,0,0],[1,0.5,0],[1,0.75,0],[0.75,1,0],[0.5,1,0],[0.25,1,0],[0,0.75,0],[0,0.5,0]];resizable=0;fontFamily=Times New Roman;" vertex="1" parent="1">
            <mxGeometry x="194" y="170" width="200" height="180" as="geometry" />
          </mxCell>
        </object>
        <object placeholders="1" c4Name="График посещаемости" c4Type="Windows" c4Description="Построение графика посещаемости" label="&lt;font&gt;&lt;b&gt;%c4Name%&lt;/b&gt;&lt;/font&gt;&lt;div&gt;[%c4Type%]&lt;/div&gt;&lt;br&gt;&lt;div&gt;&lt;font&gt;&lt;font color=&quot;#cccccc&quot;&gt;%c4Description%&lt;/font&gt;&lt;/font&gt;&lt;/div&gt;" link="data:page/id,jbcCNnoyw2ZT9uvOl_-i" id="MvrlqP20jybD7iesCiWr-2">
          <mxCell style="rounded=1;whiteSpace=wrap;html=1;labelBackgroundColor=none;fillColor=#1061B0;fontColor=#ffffff;align=center;arcSize=10;strokeColor=#0D5091;metaEdit=1;resizable=0;points=[[0.25,0,0],[0.5,0,0],[0.75,0,0],[1,0.25,0],[1,0.5,0],[1,0.75,0],[0.75,1,0],[0.5,1,0],[0.25,1,0],[0,0.75,0],[0,0.5,0],[0,0.25,0]];fontFamily=Times New Roman;fontSize=15;" vertex="1" parent="1">
            <mxGeometry x="174" y="400" width="240" height="120" as="geometry" />
          </mxCell>
        </object>
        <mxCell id="MvrlqP20jybD7iesCiWr-3" value="" style="endArrow=open;html=1;rounded=0;endFill=0;exitX=0.5;exitY=1;exitDx=0;exitDy=0;exitPerimeter=0;entryX=0.5;entryY=0;entryDx=0;entryDy=0;entryPerimeter=0;fontFamily=Times New Roman;fontSize=15;" edge="1" source="MvrlqP20jybD7iesCiWr-1" target="MvrlqP20jybD7iesCiWr-2" parent="1">
          <mxGeometry width="50" height="50" relative="1" as="geometry">
            <mxPoint x="272.5" y="450" as="sourcePoint" />
            <mxPoint x="322.5" y="400" as="targetPoint" />
          </mxGeometry>
        </mxCell>
        <object placeholders="1" c4Name="Среда разработки" c4Type="Container" c4Technology="Microsoft Visual Studio" c4Description="Используется для разработки программы" label="&lt;font&gt;&lt;b&gt;%c4Name%&lt;/b&gt;&lt;/font&gt;&lt;div&gt;[%c4Type%: %c4Technology%]&lt;/div&gt;&lt;br&gt;&lt;div&gt;&lt;font&gt;&lt;font color=&quot;#E6E6E6&quot;&gt;%c4Description%&lt;/font&gt;&lt;/font&gt;&lt;/div&gt;" id="MvrlqP20jybD7iesCiWr-4">
          <mxCell style="rounded=1;whiteSpace=wrap;html=1;fontSize=15;labelBackgroundColor=none;fillColor=#23A2D9;fontColor=#ffffff;align=center;arcSize=10;strokeColor=#0E7DAD;metaEdit=1;resizable=0;points=[[0.25,0,0],[0.5,0,0],[0.75,0,0],[1,0.25,0],[1,0.5,0],[1,0.75,0],[0.75,1,0],[0.5,1,0],[0.25,1,0],[0,0.75,0],[0,0.5,0],[0,0.25,0]];fontFamily=Times New Roman;" vertex="1" parent="1">
            <mxGeometry x="470" y="400" width="240" height="120" as="geometry" />
          </mxCell>
        </object>
        <mxCell id="MvrlqP20jybD7iesCiWr-5" value="" style="endArrow=open;html=1;rounded=0;endFill=0;exitX=1;exitY=0.5;exitDx=0;exitDy=0;exitPerimeter=0;entryX=0;entryY=0.5;entryDx=0;entryDy=0;entryPerimeter=0;fontFamily=Times New Roman;fontSize=15;" edge="1" parent="1" source="MvrlqP20jybD7iesCiWr-2" target="MvrlqP20jybD7iesCiWr-4">
          <mxGeometry width="50" height="50" relative="1" as="geometry">
            <mxPoint x="690" y="160" as="sourcePoint" />
            <mxPoint x="690" y="210" as="targetPoint" />
          </mxGeometry>
        </mxCell>
        <object placeholders="1" c4Name="Attendance App" c4Type="SystemScopeBoundary" c4Application="Программа" label="&lt;font&gt;&lt;b&gt;&lt;div style=&quot;text-align: left&quot;&gt;%c4Name%&lt;/div&gt;&lt;/b&gt;&lt;/font&gt;&lt;div style=&quot;text-align: left&quot;&gt;[%c4Application%]&lt;/div&gt;" id="MvrlqP20jybD7iesCiWr-6">
          <mxCell style="rounded=1;fontSize=15;whiteSpace=wrap;html=1;dashed=1;arcSize=20;fillColor=none;strokeColor=#666666;fontColor=#333333;labelBackgroundColor=none;align=left;verticalAlign=bottom;labelBorderColor=none;spacingTop=0;spacing=10;dashPattern=8 4;metaEdit=1;rotatable=0;perimeter=rectanglePerimeter;noLabel=0;labelPadding=0;allowArrows=0;connectable=0;expand=0;recursiveResize=0;editable=1;pointerEvents=0;absoluteArcSize=1;points=[[0.25,0,0],[0.5,0,0],[0.75,0,0],[1,0.25,0],[1,0.5,0],[1,0.75,0],[0.75,1,0],[0.5,1,0],[0.25,1,0],[0,0.75,0],[0,0.5,0],[0,0.25,0]];fontFamily=Times New Roman;" vertex="1" parent="1">
            <mxGeometry x="150" y="375" width="576" height="245" as="geometry" />
          </mxCell>
        </object>
      </root>
    </mxGraphModel>
  </diagram>
  <diagram id="jbcCNnoyw2ZT9uvOl_-i" name="Диаграмма компонентов">
    <mxGraphModel dx="954" dy="725" grid="1" gridSize="10" guides="1" tooltips="1" connect="1" arrows="1" fold="1" page="1" pageScale="1" pageWidth="827" pageHeight="1169" math="0" shadow="0">
      <root>
        <mxCell id="0" />
        <mxCell id="1" parent="0" />
        <mxCell id="8MMk7joKJrvPtnrTQWy8-1" value="" style="rounded=0;whiteSpace=wrap;html=1;" vertex="1" parent="1">
          <mxGeometry x="90" y="200" width="727.5" height="240" as="geometry" />
        </mxCell>
        <mxCell id="8MMk7joKJrvPtnrTQWy8-2" value="" style="rounded=0;whiteSpace=wrap;html=1;" vertex="1" parent="1">
          <mxGeometry x="90" y="160" width="227.5" height="40" as="geometry" />
        </mxCell>
        <mxCell id="8MMk7joKJrvPtnrTQWy8-3" value="&lt;font style=&quot;font-size: 15px;&quot; face=&quot;Times New Roman&quot;&gt;Программма &quot;&lt;/font&gt;&lt;font face=&quot;Times New Roman&quot;&gt;&lt;span style=&quot;font-size: 15px;&quot;&gt;Attendance App&quot;&lt;/span&gt;&lt;/font&gt;" style="text;html=1;align=center;verticalAlign=middle;resizable=0;points=[];autosize=1;strokeColor=none;fillColor=none;" vertex="1" parent="1">
          <mxGeometry x="90" y="165" width="220" height="30" as="geometry" />
        </mxCell>
        <UserObject label="&lt;font style=&quot;font-size: 15px;&quot; face=&quot;Times New Roman&quot;&gt;«Аппаратное обеспечение»&lt;br&gt;&lt;b&gt;Компьютер&lt;/b&gt;&lt;/font&gt;" link="data:page/id,-eUFEgTE407nXA8CRcTt" id="8MMk7joKJrvPtnrTQWy8-4">
          <mxCell style="html=1;dropTarget=0;whiteSpace=wrap;" vertex="1" parent="1">
            <mxGeometry x="110" y="275" width="180" height="90" as="geometry" />
          </mxCell>
        </UserObject>
        <mxCell id="8MMk7joKJrvPtnrTQWy8-5" value="" style="shape=module;jettyWidth=8;jettyHeight=4;" vertex="1" parent="8MMk7joKJrvPtnrTQWy8-4">
          <mxGeometry x="1" width="20" height="20" relative="1" as="geometry">
            <mxPoint x="-27" y="7" as="offset" />
          </mxGeometry>
        </mxCell>
        <mxCell id="8MMk7joKJrvPtnrTQWy8-6" value="&lt;font style=&quot;font-size: 15px;&quot; face=&quot;Times New Roman&quot;&gt;«Пограммное обеспечение»&lt;br&gt;&lt;b&gt;Программа&lt;/b&gt;&lt;/font&gt;" style="html=1;dropTarget=0;whiteSpace=wrap;" vertex="1" parent="1">
          <mxGeometry x="363.5" y="275" width="180" height="90" as="geometry" />
        </mxCell>
        <mxCell id="8MMk7joKJrvPtnrTQWy8-7" value="" style="shape=module;jettyWidth=8;jettyHeight=4;" vertex="1" parent="8MMk7joKJrvPtnrTQWy8-6">
          <mxGeometry x="1" width="20" height="20" relative="1" as="geometry">
            <mxPoint x="-27" y="7" as="offset" />
          </mxGeometry>
        </mxCell>
        <mxCell id="8MMk7joKJrvPtnrTQWy8-8" value="&lt;font style=&quot;font-size: 15px;&quot; face=&quot;Times New Roman&quot;&gt;«Программное обеспечение»&lt;br&gt;&lt;b&gt;Интерфейс&lt;/b&gt;&lt;/font&gt;" style="html=1;dropTarget=0;whiteSpace=wrap;" vertex="1" parent="1">
          <mxGeometry x="618.44" y="275" width="180" height="90" as="geometry" />
        </mxCell>
        <mxCell id="8MMk7joKJrvPtnrTQWy8-9" value="" style="shape=module;jettyWidth=8;jettyHeight=4;" vertex="1" parent="8MMk7joKJrvPtnrTQWy8-8">
          <mxGeometry x="1" width="20" height="20" relative="1" as="geometry">
            <mxPoint x="-27" y="7" as="offset" />
          </mxGeometry>
        </mxCell>
        <mxCell id="8MMk7joKJrvPtnrTQWy8-10" value="" style="html=1;rounded=0;strokeColor=#000000;fillColor=#000000;" vertex="1" parent="1">
          <mxGeometry x="273.5" y="330" width="30" height="30" as="geometry" />
        </mxCell>
        <mxCell id="8MMk7joKJrvPtnrTQWy8-11" value="" style="endArrow=none;html=1;rounded=0;align=center;verticalAlign=top;endFill=0;labelBackgroundColor=none;endSize=2;strokeColor=#000000;" edge="1" parent="1" source="8MMk7joKJrvPtnrTQWy8-10" target="8MMk7joKJrvPtnrTQWy8-12">
          <mxGeometry relative="1" as="geometry" />
        </mxCell>
        <mxCell id="8MMk7joKJrvPtnrTQWy8-12" value="" style="ellipse;html=1;fontSize=11;align=center;fillColor=#000000;points=[];aspect=fixed;resizable=0;verticalAlign=bottom;labelPosition=center;verticalLabelPosition=top;flipH=1;strokeColor=#000000;" vertex="1" parent="1">
          <mxGeometry x="317.5" y="341" width="8" height="8" as="geometry" />
        </mxCell>
        <mxCell id="8MMk7joKJrvPtnrTQWy8-13" value="" style="html=1;rounded=0;fillColor=#000000;" vertex="1" parent="1">
          <mxGeometry x="353" y="330" width="30" height="30" as="geometry" />
        </mxCell>
        <mxCell id="8MMk7joKJrvPtnrTQWy8-14" value="" style="endArrow=none;html=1;rounded=0;align=center;verticalAlign=top;endFill=0;labelBackgroundColor=none;endSize=2;" edge="1" parent="1" source="8MMk7joKJrvPtnrTQWy8-13" target="8MMk7joKJrvPtnrTQWy8-15">
          <mxGeometry relative="1" as="geometry" />
        </mxCell>
        <mxCell id="8MMk7joKJrvPtnrTQWy8-15" value="" style="shape=requiredInterface;html=1;fontSize=11;align=center;fillColor=none;points=[];aspect=fixed;resizable=0;verticalAlign=bottom;labelPosition=center;verticalLabelPosition=top;flipH=1;rotation=-180;" vertex="1" parent="1">
          <mxGeometry x="325.5" y="340" width="5" height="10" as="geometry" />
        </mxCell>
        <mxCell id="8MMk7joKJrvPtnrTQWy8-16" value="" style="html=1;rounded=0;strokeColor=#000000;fillColor=#000000;" vertex="1" parent="1">
          <mxGeometry x="528.5" y="330" width="30" height="30" as="geometry" />
        </mxCell>
        <mxCell id="8MMk7joKJrvPtnrTQWy8-17" value="" style="endArrow=none;html=1;rounded=0;align=center;verticalAlign=top;endFill=0;labelBackgroundColor=none;endSize=2;strokeColor=#000000;" edge="1" parent="1" source="8MMk7joKJrvPtnrTQWy8-16" target="8MMk7joKJrvPtnrTQWy8-18">
          <mxGeometry relative="1" as="geometry" />
        </mxCell>
        <mxCell id="8MMk7joKJrvPtnrTQWy8-18" value="" style="ellipse;html=1;fontSize=11;align=center;fillColor=#000000;points=[];aspect=fixed;resizable=0;verticalAlign=bottom;labelPosition=center;verticalLabelPosition=top;flipH=1;strokeColor=#000000;" vertex="1" parent="1">
          <mxGeometry x="572.5" y="341" width="8" height="8" as="geometry" />
        </mxCell>
        <mxCell id="8MMk7joKJrvPtnrTQWy8-19" value="" style="html=1;rounded=0;fillColor=#000000;" vertex="1" parent="1">
          <mxGeometry x="608" y="330" width="30" height="30" as="geometry" />
        </mxCell>
        <mxCell id="8MMk7joKJrvPtnrTQWy8-20" value="" style="endArrow=none;html=1;rounded=0;align=center;verticalAlign=top;endFill=0;labelBackgroundColor=none;endSize=2;" edge="1" parent="1" source="8MMk7joKJrvPtnrTQWy8-19" target="8MMk7joKJrvPtnrTQWy8-21">
          <mxGeometry relative="1" as="geometry" />
        </mxCell>
        <mxCell id="8MMk7joKJrvPtnrTQWy8-21" value="" style="shape=requiredInterface;html=1;fontSize=11;align=center;fillColor=none;points=[];aspect=fixed;resizable=0;verticalAlign=bottom;labelPosition=center;verticalLabelPosition=top;flipH=1;rotation=-180;" vertex="1" parent="1">
          <mxGeometry x="580.5" y="340" width="5" height="10" as="geometry" />
        </mxCell>
      </root>
    </mxGraphModel>
  </diagram>
  <diagram id="-eUFEgTE407nXA8CRcTt" name="Диаграмма класов">
    <mxGraphModel dx="954" dy="725" grid="0" gridSize="10" guides="1" tooltips="1" connect="1" arrows="1" fold="1" page="1" pageScale="1" pageWidth="827" pageHeight="1169" math="0" shadow="0">
      <root>
        <mxCell id="0" />
        <mxCell id="1" parent="0" />
        <mxCell id="9mN6_ugx_jJ8w_-2riLY-1" value="&lt;font style=&quot;font-size: 15px;&quot; face=&quot;Times New Roman&quot;&gt;&amp;nbsp; MainWindow&lt;/font&gt;" style="swimlane;whiteSpace=wrap;html=1;" vertex="1" parent="1">
          <mxGeometry x="190" y="150" width="170" height="270" as="geometry" />
        </mxCell>
        <mxCell id="9mN6_ugx_jJ8w_-2riLY-2" value="&lt;div style=&quot;text-align: justify;&quot;&gt;&lt;font style=&quot;font-size: 15px;&quot; face=&quot;Times New Roman&quot;&gt;- AttendanceData&lt;/font&gt;&lt;/div&gt;&lt;div style=&quot;text-align: justify;&quot;&gt;&lt;span style=&quot;background-color: initial;&quot;&gt;&lt;font style=&quot;font-size: 15px;&quot; face=&quot;Times New Roman&quot;&gt;- AttendanceTextBox&lt;/font&gt;&lt;/span&gt;&lt;/div&gt;&lt;div style=&quot;text-align: justify;&quot;&gt;&lt;span style=&quot;background-color: initial;&quot;&gt;&lt;font style=&quot;font-size: 15px;&quot; face=&quot;Times New Roman&quot;&gt;- InfoTextBlock&lt;/font&gt;&lt;/span&gt;&lt;/div&gt;&lt;div style=&quot;text-align: justify;&quot;&gt;&lt;span style=&quot;background-color: initial;&quot;&gt;&lt;font style=&quot;font-size: 15px;&quot; face=&quot;Times New Roman&quot;&gt;- MinMaxTextBlock&lt;/font&gt;&lt;/span&gt;&lt;/div&gt;&lt;div style=&quot;text-align: justify;&quot;&gt;&lt;span style=&quot;background-color: initial;&quot;&gt;&lt;font style=&quot;font-size: 15px;&quot; face=&quot;Times New Roman&quot;&gt;- AttendanceCanvas&lt;/font&gt;&lt;/span&gt;&lt;/div&gt;" style="text;html=1;align=center;verticalAlign=middle;resizable=0;points=[];autosize=1;strokeColor=none;fillColor=none;fontSize=13;" vertex="1" parent="9mN6_ugx_jJ8w_-2riLY-1">
          <mxGeometry x="-4" y="30" width="150" height="100" as="geometry" />
        </mxCell>
        <UserObject label="&lt;div style=&quot;text-align: justify;&quot;&gt;&lt;font style=&quot;font-size: 15px;&quot; face=&quot;Times New Roman&quot;&gt;+ AddButton_Click()&lt;/font&gt;&lt;/div&gt;&lt;div style=&quot;text-align: justify;&quot;&gt;&lt;span style=&quot;background-color: initial;&quot;&gt;&lt;font style=&quot;font-size: 15px;&quot; face=&quot;Times New Roman&quot;&gt;+ ResetButton_Click()&lt;/font&gt;&lt;/span&gt;&lt;/div&gt;&lt;div style=&quot;text-align: justify;&quot;&gt;&lt;span style=&quot;background-color: initial;&quot;&gt;&lt;font style=&quot;font-size: 15px;&quot; face=&quot;Times New Roman&quot;&gt;+ ExitButton_Click()&lt;/font&gt;&lt;/span&gt;&lt;/div&gt;&lt;div style=&quot;text-align: justify;&quot;&gt;&lt;span style=&quot;background-color: initial;&quot;&gt;&lt;font style=&quot;font-size: 15px;&quot; face=&quot;Times New Roman&quot;&gt;+ AboutButton_Click()&lt;/font&gt;&lt;/span&gt;&lt;/div&gt;&lt;div style=&quot;text-align: justify;&quot;&gt;&lt;span style=&quot;background-color: initial;&quot;&gt;&lt;font style=&quot;font-size: 15px;&quot; face=&quot;Times New Roman&quot;&gt;+ DrawGraph()&lt;/font&gt;&lt;/span&gt;&lt;/div&gt;&lt;div style=&quot;text-align: justify;&quot;&gt;&lt;span style=&quot;background-color: initial;&quot;&gt;&lt;font style=&quot;font-size: 15px;&quot; face=&quot;Times New Roman&quot;&gt;+ UpdateInfoText()&lt;/font&gt;&lt;/span&gt;&lt;/div&gt;&lt;div style=&quot;text-align: justify;&quot;&gt;&lt;span style=&quot;background-color: initial;&quot;&gt;&lt;font style=&quot;font-size: 15px;&quot; face=&quot;Times New Roman&quot;&gt;+ UpdateMinMaxDays()&lt;/font&gt;&lt;/span&gt;&lt;/div&gt;" link="data:page/id,0t5y7B54IwslwVeWMhBL" id="9mN6_ugx_jJ8w_-2riLY-3">
          <mxCell style="text;html=1;align=center;verticalAlign=middle;resizable=0;points=[];autosize=1;strokeColor=none;fillColor=none;" vertex="1" parent="9mN6_ugx_jJ8w_-2riLY-1">
            <mxGeometry x="-4" y="130" width="170" height="140" as="geometry" />
          </mxCell>
        </UserObject>
        <mxCell id="9mN6_ugx_jJ8w_-2riLY-4" value="" style="endArrow=none;html=1;rounded=0;exitX=0;exitY=0.5;exitDx=0;exitDy=0;entryX=1;entryY=0.5;entryDx=0;entryDy=0;" edge="1" parent="1" source="9mN6_ugx_jJ8w_-2riLY-1" target="9mN6_ugx_jJ8w_-2riLY-1">
          <mxGeometry width="50" height="50" relative="1" as="geometry">
            <mxPoint x="270" y="270" as="sourcePoint" />
            <mxPoint x="320" y="220" as="targetPoint" />
          </mxGeometry>
        </mxCell>
        <mxCell id="9mN6_ugx_jJ8w_-2riLY-5" value="&lt;font face=&quot;Times New Roman&quot;&gt;&lt;span style=&quot;font-size: 15px;&quot;&gt;AttendanceData&lt;/span&gt;&lt;/font&gt;" style="swimlane;whiteSpace=wrap;html=1;" vertex="1" parent="1">
          <mxGeometry x="450" y="200" width="170" height="180" as="geometry" />
        </mxCell>
        <mxCell id="9mN6_ugx_jJ8w_-2riLY-6" value="&lt;div style=&quot;text-align: justify;&quot;&gt;&lt;div&gt;&lt;font style=&quot;font-size: 15px;&quot; face=&quot;Times New Roman&quot;&gt;+ SetAttendance()&lt;/font&gt;&lt;/div&gt;&lt;div&gt;&lt;span style=&quot;font-size: 15px; font-family: &amp;quot;Times New Roman&amp;quot;; background-color: initial;&quot;&gt;+ GetAttendance()&lt;/span&gt;&lt;/div&gt;&lt;div&gt;&lt;span style=&quot;font-size: 15px; font-family: &amp;quot;Times New Roman&amp;quot;; background-color: initial;&quot;&gt;+ GetMinMaxDays()&lt;/span&gt;&lt;/div&gt;&lt;div&gt;&lt;span style=&quot;font-size: 15px; font-family: &amp;quot;Times New Roman&amp;quot;; background-color: initial;&quot;&gt;+ GetAttendanceList()&lt;/span&gt;&lt;/div&gt;&lt;/div&gt;" style="text;html=1;align=center;verticalAlign=middle;resizable=0;points=[];autosize=1;strokeColor=none;fillColor=none;" vertex="1" parent="9mN6_ugx_jJ8w_-2riLY-5">
          <mxGeometry y="90" width="160" height="90" as="geometry" />
        </mxCell>
        <mxCell id="9mN6_ugx_jJ8w_-2riLY-7" value="&lt;div style=&quot;text-align: justify;&quot;&gt;&lt;font face=&quot;Times New Roman&quot;&gt;&lt;span style=&quot;font-size: 15px;&quot;&gt;- attendanceList&lt;/span&gt;&lt;/font&gt;&lt;br&gt;&lt;/div&gt;" style="text;html=1;align=center;verticalAlign=middle;resizable=0;points=[];autosize=1;strokeColor=none;fillColor=none;fontSize=13;" vertex="1" parent="9mN6_ugx_jJ8w_-2riLY-5">
          <mxGeometry y="40" width="120" height="30" as="geometry" />
        </mxCell>
        <mxCell id="9mN6_ugx_jJ8w_-2riLY-8" value="" style="endArrow=none;html=1;rounded=0;exitX=0;exitY=0.5;exitDx=0;exitDy=0;entryX=1;entryY=0.5;entryDx=0;entryDy=0;" edge="1" parent="1" source="9mN6_ugx_jJ8w_-2riLY-5" target="9mN6_ugx_jJ8w_-2riLY-5">
          <mxGeometry width="50" height="50" relative="1" as="geometry">
            <mxPoint x="600" y="490" as="sourcePoint" />
            <mxPoint x="650" y="440" as="targetPoint" />
          </mxGeometry>
        </mxCell>
        <mxCell id="9mN6_ugx_jJ8w_-2riLY-9" value="" style="endArrow=diamondThin;html=1;rounded=0;endFill=0;startSize=7;sourcePerimeterSpacing=1;targetPerimeterSpacing=1;endSize=7;exitX=1;exitY=0.75;exitDx=0;exitDy=0;entryX=-0.022;entryY=0.244;entryDx=0;entryDy=0;entryPerimeter=0;" edge="1" parent="1" source="9mN6_ugx_jJ8w_-2riLY-1" target="9mN6_ugx_jJ8w_-2riLY-7">
          <mxGeometry width="50" height="50" relative="1" as="geometry">
            <mxPoint x="468" y="70" as="sourcePoint" />
            <mxPoint x="518" y="20" as="targetPoint" />
            <Array as="points">
              <mxPoint x="390" y="353" />
              <mxPoint x="390" y="247" />
            </Array>
          </mxGeometry>
        </mxCell>
      </root>
    </mxGraphModel>
  </diagram>
</mxfile>
